<?xml version="1.0" encoding="UTF-8" standalone="no"?><!DOCTYPE svg PUBLIC "-//W3C//DTD SVG 1.1//EN" "http://www.w3.org/Graphics/SVG/1.1/DTD/svg11.dtd"><svg width="100%" height="100%" viewBox="0 0 207 188" version="1.1" xmlns="http://www.w3.org/2000/svg" xmlns:xlink="http://www.w3.org/1999/xlink" xml:space="preserve" xmlns:serif="http://www.serif.com/" style="fill-rule:evenodd;clip-rule:evenodd;stroke-linejoin:round;stroke-miterlimit:2;"><g id="Objects"><path d="M68.743,119.773c0,-0 7.757,0.124 19.374,0.607c5.808,0.231 12.582,0.549 19.837,0.938c3.627,0.203 7.374,0.413 11.182,0.626c3.807,0.234 7.674,0.471 11.542,0.708c3.865,0.263 7.731,0.527 11.536,0.786c3.806,0.247 7.547,0.556 11.17,0.819c7.244,0.549 14.002,1.108 19.792,1.629c11.582,1.02 19.29,1.9 19.29,1.9c0,-0 -7.757,-0.122 -19.374,-0.605c-5.809,-0.23 -12.582,-0.547 -19.837,-0.938c-3.627,-0.206 -7.376,-0.381 -11.182,-0.627c-3.807,-0.234 -7.674,-0.472 -11.541,-0.71c-3.866,-0.263 -7.731,-0.527 -11.536,-0.786c-3.804,-0.28 -7.548,-0.555 -11.17,-0.821c-7.245,-0.55 -14.003,-1.108 -19.793,-1.629c-11.582,-1.019 -19.29,-1.897 -19.29,-1.897" style="fill:#555;fill-rule:nonzero;"/><path d="M115.787,112.567c-0.159,0.031 -0.315,0.07 -0.475,0.109c-0.048,0.014 -0.097,0.029 -0.148,0.042c-0.106,0.03 -0.211,0.061 -0.318,0.095c-0.055,0.017 -0.111,0.036 -0.167,0.055c-0.1,0.035 -0.2,0.071 -0.297,0.108c-0.053,0.021 -0.109,0.042 -0.162,0.064c-0.106,0.044 -0.212,0.09 -0.319,0.139c-0.041,0.018 -0.082,0.036 -0.124,0.056c-0.143,0.067 -0.285,0.141 -0.426,0.216c-0.029,0.017 -0.055,0.034 -0.084,0.05c-0.113,0.063 -0.222,0.127 -0.332,0.194c-0.049,0.029 -0.094,0.06 -0.142,0.091c-0.089,0.058 -0.177,0.116 -0.266,0.178c-0.048,0.034 -0.097,0.068 -0.147,0.104c-0.087,0.063 -0.17,0.127 -0.255,0.194c-0.031,0.023 -0.062,0.044 -0.091,0.068c-0.016,0.012 -0.03,0.024 -0.042,0.036c-0.09,0.073 -0.18,0.148 -0.267,0.224c-0.034,0.028 -0.069,0.058 -0.101,0.088c-0.12,0.107 -0.237,0.218 -0.35,0.329c-0.006,0.004 -0.008,0.008 -0.01,0.012c-0.009,0.007 -0.013,0.015 -0.023,0.021c-0.176,0.178 -0.349,0.363 -0.514,0.556c-0.006,0.008 -0.014,0.015 -0.022,0.024c-0.002,0.003 -0.004,0.008 -0.006,0.01c-0.137,0.16 -0.269,0.327 -0.396,0.496c-0.016,0.021 -0.033,0.041 -0.048,0.062c-0.014,0.02 -0.029,0.041 -0.043,0.06c-0.111,0.156 -0.224,0.313 -0.329,0.477l0,0.001c0,0.001 -0.004,0.004 -0.005,0.006c-0.097,0.153 -0.192,0.31 -0.282,0.467c-0.012,0.019 -0.024,0.038 -0.035,0.058c-0.019,0.03 -0.033,0.062 -0.051,0.093c-0.063,0.115 -0.124,0.229 -0.184,0.346c-0.015,0.03 -0.034,0.061 -0.047,0.093c-0.011,0.019 -0.02,0.038 -0.028,0.057c-0.063,0.129 -0.124,0.26 -0.183,0.394c-0.013,0.027 -0.027,0.052 -0.04,0.078c-0.001,0.007 -0.003,0.013 -0.005,0.018c-0.069,0.161 -0.135,0.324 -0.2,0.488c-0.003,0.009 -0.006,0.019 -0.009,0.028c-0.015,0.034 -0.025,0.07 -0.038,0.106c-0.045,0.123 -0.09,0.245 -0.133,0.37c-0.007,0.023 -0.014,0.045 -0.022,0.065c-0.012,0.04 -0.022,0.079 -0.033,0.117c-0.037,0.109 -0.067,0.218 -0.1,0.329c-0.009,0.037 -0.023,0.073 -0.032,0.111c-0.01,0.03 -0.016,0.062 -0.024,0.093c-0.032,0.118 -0.06,0.238 -0.087,0.357c-0.012,0.042 -0.022,0.083 -0.031,0.124c-0.005,0.017 -0.006,0.033 -0.011,0.05c-0.036,0.17 -0.07,0.341 -0.1,0.515c-0.002,0.012 -0.005,0.024 -0.007,0.035c0,0.005 -0.001,0.011 -0.002,0.015c-0.032,0.184 -0.058,0.37 -0.084,0.557c-0.002,0.019 -0.005,0.038 -0.007,0.058c-0.004,0.038 -0.005,0.075 -0.012,0.112c-0.016,0.155 -0.032,0.31 -0.042,0.466c-0.002,0.035 -0.009,0.073 -0.012,0.109c-0.002,0.025 0,0.05 -0.003,0.073c-0.013,0.221 -0.022,0.442 -0.026,0.666c0.001,0.005 -0.001,0.012 0,0.018c-0.001,0.16 0,0.321 0.003,0.483l37.411,-7.37c-0.003,-0.169 -0.002,-0.335 0,-0.501c0,-0.225 0.013,-0.447 0.025,-0.667c0.002,-0.061 0.01,-0.121 0.012,-0.181c0.014,-0.158 0.028,-0.313 0.045,-0.467c0.008,-0.057 0.012,-0.113 0.021,-0.17c0.022,-0.186 0.049,-0.374 0.079,-0.558c0.003,-0.016 0.009,-0.032 0.012,-0.05c0.028,-0.172 0.062,-0.343 0.1,-0.514c0.011,-0.059 0.026,-0.116 0.041,-0.175c0.029,-0.119 0.056,-0.237 0.087,-0.355c0.019,-0.069 0.037,-0.137 0.057,-0.205c0.03,-0.11 0.066,-0.219 0.099,-0.328c0.019,-0.062 0.036,-0.123 0.059,-0.182c0.04,-0.125 0.084,-0.248 0.128,-0.37c0.017,-0.045 0.032,-0.09 0.051,-0.135c0.06,-0.166 0.126,-0.327 0.196,-0.488c0.016,-0.034 0.033,-0.067 0.047,-0.099c0.058,-0.134 0.119,-0.263 0.18,-0.391c0.028,-0.05 0.051,-0.101 0.079,-0.151c0.06,-0.116 0.12,-0.231 0.185,-0.344c0.027,-0.052 0.053,-0.102 0.083,-0.152c0.093,-0.158 0.185,-0.314 0.284,-0.465c0.002,-0.002 0.002,-0.006 0.006,-0.009c0.105,-0.163 0.214,-0.321 0.328,-0.475c0.029,-0.04 0.057,-0.079 0.086,-0.118c0.128,-0.171 0.261,-0.341 0.399,-0.503c0.008,-0.011 0.02,-0.023 0.029,-0.033c0.165,-0.194 0.336,-0.378 0.514,-0.555c0.01,-0.011 0.021,-0.023 0.033,-0.032c0.114,-0.114 0.228,-0.224 0.348,-0.332c0.034,-0.03 0.069,-0.058 0.103,-0.087c0.088,-0.076 0.175,-0.151 0.264,-0.226c0.044,-0.034 0.091,-0.068 0.135,-0.104c0.084,-0.065 0.17,-0.129 0.258,-0.192c0.047,-0.036 0.096,-0.071 0.144,-0.105c0.089,-0.061 0.178,-0.119 0.267,-0.177c0.048,-0.03 0.096,-0.061 0.142,-0.09c0.109,-0.068 0.218,-0.132 0.33,-0.194c0.029,-0.017 0.057,-0.035 0.086,-0.05c0.141,-0.076 0.283,-0.149 0.428,-0.217c0.039,-0.021 0.081,-0.037 0.123,-0.057c0.105,-0.048 0.211,-0.094 0.319,-0.137c0.052,-0.022 0.106,-0.043 0.161,-0.064c0.1,-0.039 0.196,-0.074 0.297,-0.108c0.056,-0.019 0.11,-0.039 0.168,-0.057c0.105,-0.034 0.21,-0.065 0.317,-0.094c0.051,-0.014 0.1,-0.029 0.151,-0.041c0.155,-0.041 0.314,-0.078 0.473,-0.109c-12.471,2.457 -24.943,4.914 -37.414,7.37" style="fill:#fff;fill-rule:nonzero;"/><path d="M136.013,123.534c0.008,-0.009 0.018,-0.019 0.026,-0.03c0.056,-0.068 0.109,-0.138 0.161,-0.211c0.017,-0.021 0.031,-0.044 0.05,-0.066c0.042,-0.065 0.085,-0.131 0.126,-0.198c0.012,-0.021 0.023,-0.041 0.037,-0.061c0.003,-0.006 0.005,-0.012 0.009,-0.017c-0.125,0.218 -0.268,0.42 -0.427,0.604c0.005,-0.007 0.012,-0.013 0.018,-0.021" style="fill:#555;fill-rule:nonzero;"/><path d="M151.03,123.935c0.026,-0.008 0.051,-0.015 0.076,-0.023c-0.149,0.046 -0.3,0.085 -0.454,0.117c0.128,-0.028 0.254,-0.059 0.378,-0.094" style="fill:#555;fill-rule:nonzero;"/><path d="M136.553,122.705c0.006,-0.016 0.016,-0.034 0.022,-0.051c0.041,-0.086 0.078,-0.174 0.115,-0.263c0.004,-0.01 0.008,-0.019 0.011,-0.028c0.014,-0.036 0.025,-0.073 0.037,-0.109c-0.084,0.239 -0.186,0.467 -0.308,0.68c0.043,-0.075 0.084,-0.15 0.123,-0.229" style="fill:#555;fill-rule:nonzero;"/><path d="M151.523,123.762c0.024,-0.011 0.049,-0.022 0.073,-0.033c0.006,-0.003 0.013,-0.006 0.019,-0.01c-0.1,0.044 -0.201,0.082 -0.304,0.119c0.07,-0.025 0.143,-0.048 0.212,-0.076" style="fill:#555;fill-rule:nonzero;"/><path d="M136.758,122.199c0.014,-0.046 0.032,-0.09 0.047,-0.136c0.004,-0.017 0.009,-0.036 0.013,-0.055c0.029,-0.1 0.055,-0.202 0.077,-0.306c0.006,-0.016 0.009,-0.034 0.012,-0.052c0.012,-0.065 0.024,-0.131 0.034,-0.196c-0.041,0.258 -0.103,0.507 -0.183,0.745" style="fill:#555;fill-rule:nonzero;"/><path d="M136.956,121.363c0.002,-0.019 0.005,-0.038 0.007,-0.057c0.016,-0.109 0.026,-0.219 0.031,-0.329c0.002,-0.031 0.003,-0.06 0.004,-0.089c0.002,-0.107 0.009,-0.216 0.004,-0.326c0.007,0.292 -0.012,0.575 -0.054,0.848c0.002,-0.016 0.007,-0.032 0.008,-0.047" style="fill:#555;fill-rule:nonzero;"/><path d="M135.534,124.001c0.092,-0.075 0.183,-0.154 0.267,-0.239c0.058,-0.058 0.115,-0.119 0.168,-0.181c-0.151,0.172 -0.318,0.327 -0.494,0.464c0.02,-0.015 0.042,-0.028 0.059,-0.044" style="fill:#555;fill-rule:nonzero;"/><path d="M134.929,124.389c0.072,-0.036 0.144,-0.075 0.211,-0.116c0.034,-0.02 0.07,-0.04 0.103,-0.062c0.055,-0.037 0.11,-0.077 0.163,-0.117c-0.17,0.126 -0.352,0.235 -0.544,0.325c0.024,-0.01 0.046,-0.021 0.067,-0.03" style="fill:#555;fill-rule:nonzero;"/><path d="M153.217,122.628c0.079,-0.079 0.154,-0.164 0.229,-0.249c-0.092,0.105 -0.189,0.205 -0.288,0.302c0.019,-0.018 0.04,-0.034 0.059,-0.053" style="fill:#555;fill-rule:nonzero;"/><path d="M151.984,123.544c0.006,-0.003 0.015,-0.008 0.021,-0.012c0.034,-0.018 0.068,-0.041 0.1,-0.062c-0.093,0.056 -0.189,0.105 -0.287,0.153c0.054,-0.026 0.111,-0.05 0.166,-0.079" style="fill:#555;fill-rule:nonzero;"/><path d="M154.398,120.957c0.015,-0.026 0.027,-0.055 0.041,-0.082c0.004,-0.008 0.007,-0.017 0.01,-0.024c-0.053,0.115 -0.112,0.226 -0.171,0.335c0.04,-0.076 0.082,-0.15 0.12,-0.229" style="fill:#555;fill-rule:nonzero;"/><path d="M154.124,121.463c0.02,-0.031 0.036,-0.06 0.057,-0.09c0.003,-0.007 0.007,-0.013 0.009,-0.019c-0.059,0.102 -0.125,0.198 -0.187,0.296c0.04,-0.062 0.082,-0.123 0.121,-0.187" style="fill:#555;fill-rule:nonzero;"/><path d="M152.799,122.998c0.043,-0.035 0.082,-0.075 0.125,-0.111c-0.06,0.051 -0.118,0.104 -0.179,0.152c0.017,-0.014 0.036,-0.027 0.054,-0.041" style="fill:#555;fill-rule:nonzero;"/><path d="M152.387,123.301c0.022,-0.017 0.048,-0.033 0.073,-0.049c0.035,-0.025 0.068,-0.051 0.102,-0.077c-0.091,0.067 -0.186,0.131 -0.281,0.19c0.036,-0.021 0.071,-0.041 0.106,-0.064" style="fill:#555;fill-rule:nonzero;"/><path d="M153.553,122.264c0.01,-0.016 0.025,-0.03 0.034,-0.046c0.091,-0.107 0.177,-0.219 0.261,-0.335c0.002,-0.003 0.004,-0.006 0.006,-0.009c-0.104,0.145 -0.214,0.286 -0.328,0.42c0.009,-0.01 0.018,-0.021 0.027,-0.03" style="fill:#555;fill-rule:nonzero;"/><path d="M154.439,120.876c-0.014,0.027 -0.026,0.055 -0.041,0.082c-0.038,0.079 -0.08,0.153 -0.12,0.229c0.059,-0.11 0.118,-0.221 0.171,-0.335c-0.003,0.007 -0.006,0.016 -0.01,0.024m-0.258,0.497c-0.021,0.03 -0.037,0.06 -0.057,0.09c-0.039,0.064 -0.081,0.125 -0.122,0.188c0.063,-0.098 0.129,-0.194 0.188,-0.297c-0.002,0.006 -0.006,0.012 -0.009,0.019m-0.333,0.51c-0.084,0.117 -0.17,0.229 -0.261,0.336c-0.01,0.015 -0.024,0.03 -0.034,0.046c-0.009,0.009 -0.019,0.02 -0.028,0.029c0.115,-0.134 0.225,-0.274 0.329,-0.419c-0.002,0.002 -0.004,0.006 -0.006,0.008m-0.631,0.745c-0.02,0.019 -0.04,0.034 -0.059,0.053c0.099,-0.097 0.196,-0.197 0.288,-0.302c-0.075,0.085 -0.151,0.17 -0.229,0.249m-0.418,0.37c-0.018,0.015 -0.036,0.027 -0.054,0.042c0.061,-0.048 0.119,-0.101 0.18,-0.153c-0.043,0.036 -0.083,0.077 -0.126,0.111m-0.339,0.255c-0.025,0.016 -0.051,0.031 -0.073,0.049c-0.035,0.023 -0.07,0.042 -0.106,0.064c0.095,-0.06 0.19,-0.124 0.281,-0.19c-0.034,0.026 -0.067,0.052 -0.102,0.077m-0.455,0.28c-0.007,0.004 -0.015,0.008 -0.021,0.012c-0.055,0.028 -0.112,0.052 -0.166,0.078c0.097,-0.047 0.194,-0.097 0.287,-0.152c-0.032,0.02 -0.066,0.044 -0.1,0.062m-0.409,0.197c-0.024,0.011 -0.049,0.022 -0.073,0.033c-0.07,0.028 -0.142,0.051 -0.213,0.076c0.103,-0.037 0.205,-0.075 0.305,-0.119c-0.007,0.004 -0.013,0.007 -0.019,0.01m-0.566,0.205c-0.124,0.036 -0.25,0.067 -0.377,0.095c0.153,-0.032 0.304,-0.072 0.453,-0.117c-0.025,0.008 -0.05,0.015 -0.076,0.022m-14.135,-2.232c-0.022,0.104 -0.048,0.206 -0.078,0.306c-0.003,0.019 -0.008,0.038 -0.013,0.055c-0.014,0.046 -0.032,0.09 -0.046,0.136c0.079,-0.238 0.142,-0.488 0.183,-0.746c-0.01,0.066 -0.022,0.132 -0.034,0.197c-0.003,0.018 -0.006,0.035 -0.012,0.052m-0.194,0.66c-0.002,0.009 -0.008,0.018 -0.011,0.028c-0.037,0.09 -0.075,0.178 -0.115,0.264c-0.006,0.017 -0.017,0.035 -0.023,0.05c-0.037,0.079 -0.079,0.155 -0.121,0.23c0.12,-0.214 0.223,-0.442 0.307,-0.681c-0.013,0.036 -0.024,0.074 -0.037,0.109m-0.288,0.605c-0.014,0.02 -0.025,0.04 -0.037,0.061c-0.042,0.067 -0.084,0.133 -0.127,0.198c-0.018,0.022 -0.033,0.045 -0.05,0.066c-0.051,0.073 -0.104,0.143 -0.16,0.211c-0.008,0.01 -0.019,0.021 -0.026,0.03c-0.006,0.008 -0.013,0.014 -0.019,0.021c0.159,-0.184 0.302,-0.386 0.428,-0.605c-0.004,0.006 -0.007,0.012 -0.009,0.018m-0.612,0.794c-0.084,0.085 -0.175,0.165 -0.267,0.239c-0.017,0.016 -0.039,0.03 -0.059,0.044c0.176,-0.137 0.343,-0.292 0.494,-0.464c-0.053,0.062 -0.11,0.124 -0.168,0.181m-0.558,0.449c-0.033,0.022 -0.068,0.043 -0.103,0.063c-0.067,0.041 -0.138,0.08 -0.211,0.115c-0.02,0.01 -0.042,0.02 -0.066,0.031c0.191,-0.091 0.373,-0.2 0.543,-0.325c-0.052,0.04 -0.108,0.079 -0.163,0.116m1.755,-3.323c-0.001,0.029 -0.002,0.058 -0.004,0.089c-0.006,0.11 -0.015,0.22 -0.031,0.329c-0.002,0.018 -0.005,0.038 -0.007,0.057c-0.001,0.015 -0.006,0.031 -0.008,0.047c0.042,-0.273 0.061,-0.556 0.054,-0.848c0.005,0.11 -0.002,0.219 -0.004,0.326m-74.498,-10.12c-4.87,-0.192 -8.708,4.232 -8.574,9.881c0.135,5.651 4.189,10.383 9.057,10.576c4.865,0.193 8.701,-4.229 8.567,-9.879c-0.042,-1.745 -0.459,-3.401 -1.155,-4.865c0.867,1.733 1.393,3.712 1.441,5.807l36.175,1.393c-0.152,-6.429 4.234,-11.484 9.771,-11.266c1.451,0.057 2.834,0.477 4.095,1.171l-3.363,0.663c0.074,0.003 0.148,0.011 0.224,0.015c0.135,0.01 0.27,0.023 0.404,0.039c0.06,0.007 0.118,0.013 0.176,0.022c0.112,0.016 0.22,0.036 0.33,0.056c0.056,0.01 0.111,0.02 0.166,0.03c0.118,0.026 0.236,0.055 0.354,0.084c0.036,0.011 0.078,0.018 0.115,0.029c0.15,0.042 0.3,0.086 0.449,0.137c0.051,0.018 0.103,0.038 0.152,0.057c0.095,0.032 0.191,0.068 0.285,0.105c0.06,0.024 0.118,0.05 0.173,0.074c0.084,0.036 0.17,0.071 0.248,0.108c0.063,0.029 0.126,0.062 0.186,0.092c0.078,0.039 0.156,0.075 0.231,0.116c0.059,0.032 0.121,0.068 0.18,0.101c0.075,0.041 0.152,0.084 0.225,0.129c0.06,0.036 0.118,0.073 0.176,0.112c0.077,0.046 0.15,0.094 0.226,0.145c0.059,0.038 0.116,0.078 0.168,0.117c0.078,0.054 0.154,0.111 0.232,0.166c0.053,0.041 0.106,0.083 0.161,0.125c0.082,0.064 0.162,0.129 0.242,0.197c0.047,0.041 0.096,0.081 0.144,0.122c0.102,0.09 0.205,0.183 0.305,0.279c0.029,0.026 0.058,0.054 0.088,0.082c0.135,0.131 0.265,0.266 0.393,0.406c0.033,0.031 0.06,0.065 0.088,0.096c0.123,0.135 0.242,0.275 0.358,0.419c0.028,0.032 0.053,0.062 0.077,0.095c0.16,0.201 0.312,0.409 0.458,0.623c0.025,0.038 0.053,0.077 0.079,0.115c0.1,0.148 0.195,0.298 0.287,0.452c0.007,0.015 0.02,0.029 0.027,0.047c0.099,0.167 0.195,0.339 0.286,0.513c0.024,0.045 0.049,0.092 0.07,0.137c0.078,0.156 0.153,0.315 0.228,0.476c0.02,0.041 0.038,0.082 0.058,0.123c0.084,0.194 0.165,0.391 0.239,0.592c0.016,0.04 0.03,0.082 0.046,0.123c0.061,0.169 0.119,0.341 0.171,0.513c0.017,0.05 0.033,0.101 0.047,0.15c0.062,0.208 0.122,0.419 0.172,0.632c0.008,0.039 0.016,0.08 0.027,0.12c0.032,0.149 0.065,0.301 0.094,0.453c0.012,0.063 0.022,0.127 0.034,0.19c0.024,0.134 0.043,0.269 0.063,0.403c0.008,0.06 0.014,0.122 0.021,0.182c0.033,0.261 0.058,0.525 0.07,0.791c0.01,0.129 0.017,0.259 0.02,0.389c0.007,0.26 0,0.514 -0.012,0.768c-0.003,0.073 -0.005,0.148 -0.008,0.221c-0.014,0.262 -0.04,0.52 -0.072,0.775c-0.004,0.047 -0.012,0.092 -0.019,0.138c-0.033,0.231 -0.071,0.459 -0.12,0.685c-0.007,0.041 -0.014,0.081 -0.021,0.12c-0.052,0.245 -0.115,0.487 -0.182,0.724c-0.015,0.049 -0.031,0.098 -0.046,0.146c-0.072,0.238 -0.148,0.471 -0.236,0.698c-0.008,0.024 -0.019,0.048 -0.03,0.072c-0.082,0.211 -0.171,0.417 -0.269,0.62c-0.019,0.043 -0.037,0.085 -0.058,0.126c-0.104,0.213 -0.213,0.421 -0.333,0.624c-0.027,0.045 -0.056,0.09 -0.083,0.136c-0.098,0.162 -0.198,0.32 -0.306,0.474c-0.036,0.055 -0.074,0.108 -0.112,0.161c-0.125,0.173 -0.254,0.341 -0.39,0.505c-0.018,0.022 -0.035,0.044 -0.053,0.067c-0.163,0.191 -0.332,0.374 -0.509,0.548c-0.199,0.199 -0.407,0.384 -0.623,0.557c-0.167,0.136 -0.339,0.263 -0.515,0.384c-0.035,0.025 -0.073,0.049 -0.109,0.074c-0.187,0.124 -0.377,0.242 -0.573,0.349c-0.012,0.006 -0.024,0.011 -0.037,0.016c-0.189,0.103 -0.384,0.195 -0.582,0.281c-0.036,0.016 -0.073,0.033 -0.111,0.047c-0.2,0.084 -0.408,0.158 -0.616,0.225c-0.041,0.013 -0.081,0.025 -0.124,0.036c-0.218,0.065 -0.437,0.122 -0.664,0.166c1.305,-0.256 2.606,-0.513 3.91,-0.769c0.225,-0.044 0.446,-0.102 0.663,-0.166c0.042,-0.012 0.083,-0.024 0.125,-0.038c0.206,-0.066 0.414,-0.141 0.615,-0.222c0.04,-0.017 0.073,-0.033 0.113,-0.05c0.197,-0.085 0.389,-0.176 0.58,-0.277c0.012,-0.008 0.024,-0.014 0.037,-0.019c0.196,-0.107 0.385,-0.224 0.572,-0.348c0.036,-0.026 0.075,-0.05 0.112,-0.076c0.164,-0.11 0.32,-0.226 0.475,-0.348c0.012,-0.011 0.024,-0.022 0.036,-0.034c0.216,-0.175 0.426,-0.361 0.629,-0.559c0.002,-0.004 0.003,-0.005 0.007,-0.01c0.167,-0.167 0.332,-0.342 0.486,-0.525c0.002,-0.004 0.009,-0.007 0.011,-0.011c0.021,-0.025 0.04,-0.051 0.061,-0.076c0.11,-0.134 0.219,-0.267 0.323,-0.408c0.02,-0.029 0.04,-0.059 0.06,-0.088c0.039,-0.053 0.076,-0.109 0.112,-0.163c0.052,-0.074 0.104,-0.145 0.153,-0.22c0.054,-0.081 0.101,-0.167 0.153,-0.251c0.027,-0.046 0.056,-0.092 0.085,-0.14c0.014,-0.025 0.031,-0.049 0.044,-0.074c0.086,-0.152 0.168,-0.307 0.248,-0.465c0.015,-0.026 0.026,-0.054 0.038,-0.08c0.024,-0.043 0.042,-0.088 0.06,-0.132c0.04,-0.085 0.081,-0.167 0.118,-0.253c0.053,-0.119 0.101,-0.24 0.15,-0.363c0.01,-0.024 0.02,-0.048 0.029,-0.074c0.002,-0.009 0.008,-0.018 0.013,-0.029c0.057,-0.156 0.115,-0.314 0.166,-0.475c0.022,-0.063 0.038,-0.128 0.058,-0.192c0.014,-0.051 0.031,-0.099 0.043,-0.15c0.017,-0.049 0.033,-0.095 0.044,-0.144c0.044,-0.168 0.089,-0.336 0.126,-0.507c0.008,-0.022 0.008,-0.047 0.016,-0.07c0.008,-0.039 0.015,-0.079 0.022,-0.12c0.024,-0.111 0.045,-0.222 0.065,-0.335c0.021,-0.116 0.034,-0.233 0.051,-0.35c0.008,-0.046 0.016,-0.092 0.022,-0.138c0.004,-0.022 0.007,-0.043 0.007,-0.066c0.026,-0.199 0.044,-0.401 0.059,-0.606c0.003,-0.033 0.002,-0.068 0.005,-0.102c0.004,-0.075 0.006,-0.148 0.007,-0.222c0.005,-0.061 0.006,-0.121 0.008,-0.181l1.923,0.076c0.498,0.02 0.97,-0.079 1.399,-0.269c-0.067,0.03 -0.136,0.058 -0.208,0.083c-0.033,0.013 -0.068,0.026 -0.103,0.038c-0.112,0.037 -0.23,0.067 -0.347,0.091c3.831,-0.755 7.665,-1.51 11.497,-2.264c1.04,1.029 2.363,1.678 3.793,1.735c0.401,0.016 0.793,-0.016 1.171,-0.091c-0.003,0.001 -0.005,0.001 -0.006,0.001c0.864,-0.17 1.73,-0.34 2.596,-0.51c0.148,-0.03 0.293,-0.068 0.438,-0.111c0.027,-0.008 0.056,-0.017 0.085,-0.024c0.136,-0.044 0.273,-0.094 0.407,-0.149c0.025,-0.01 0.049,-0.022 0.075,-0.032c0.13,-0.057 0.258,-0.118 0.386,-0.185c0.006,-0.004 0.014,-0.008 0.022,-0.013c0.131,-0.07 0.258,-0.147 0.381,-0.231c0.023,-0.016 0.049,-0.032 0.074,-0.048c0.106,-0.074 0.213,-0.151 0.317,-0.232c0.008,-0.007 0.015,-0.015 0.023,-0.023c0.145,-0.116 0.282,-0.239 0.414,-0.371c0.005,-0.002 0.005,-0.004 0.009,-0.006c0.11,-0.111 0.218,-0.228 0.324,-0.348c0.001,-0.003 0.002,-0.007 0.004,-0.008c0.014,-0.016 0.026,-0.035 0.042,-0.051c0.073,-0.089 0.144,-0.177 0.214,-0.271c0.013,-0.018 0.026,-0.038 0.041,-0.058c0.024,-0.036 0.048,-0.072 0.073,-0.108c0.034,-0.049 0.069,-0.096 0.101,-0.145c0.036,-0.055 0.069,-0.112 0.099,-0.168c0.02,-0.03 0.04,-0.06 0.059,-0.093c0.007,-0.016 0.021,-0.032 0.03,-0.049c0.057,-0.1 0.111,-0.203 0.163,-0.307c0.009,-0.019 0.017,-0.038 0.026,-0.055c0.014,-0.028 0.027,-0.058 0.041,-0.087c0.027,-0.055 0.053,-0.111 0.08,-0.168c0.008,-0.02 0.016,-0.041 0.024,-0.062c4.804,-0.946 9.607,-1.892 14.41,-2.838c0.118,-0.023 0.234,-0.055 0.347,-0.092c0.035,-0.011 0.069,-0.025 0.104,-0.037c0.079,-0.029 0.154,-0.059 0.23,-0.093c0.038,-0.017 0.076,-0.036 0.114,-0.055c0.069,-0.035 0.142,-0.073 0.21,-0.114c0.035,-0.02 0.07,-0.041 0.104,-0.063c0.074,-0.049 0.148,-0.102 0.219,-0.157c0.019,-0.013 0.04,-0.025 0.057,-0.04c0.007,-0.004 0.009,-0.009 0.017,-0.012c0.091,-0.075 0.178,-0.152 0.261,-0.237c0.004,-0.002 0.004,-0.003 0.008,-0.005c0.07,-0.07 0.138,-0.144 0.203,-0.221c0,-0.001 0.003,-0.002 0.005,-0.004c0.008,-0.01 0.014,-0.021 0.025,-0.03c0.043,-0.057 0.092,-0.115 0.136,-0.173c0.007,-0.013 0.018,-0.026 0.026,-0.038c0.014,-0.022 0.031,-0.043 0.045,-0.066c0.021,-0.033 0.044,-0.063 0.067,-0.095c0.021,-0.034 0.042,-0.07 0.063,-0.104c0.011,-0.021 0.025,-0.041 0.035,-0.061c0.007,-0.011 0.015,-0.02 0.019,-0.031c0.038,-0.064 0.072,-0.129 0.106,-0.195c0.006,-0.012 0.01,-0.024 0.015,-0.037c0.009,-0.016 0.015,-0.032 0.024,-0.049c0.018,-0.036 0.035,-0.073 0.05,-0.109c0.024,-0.053 0.044,-0.104 0.066,-0.156c0.002,-0.01 0.005,-0.018 0.009,-0.028c0.001,-0.005 0.002,-0.009 0.007,-0.012c0.024,-0.066 0.046,-0.134 0.07,-0.201c0.008,-0.029 0.018,-0.057 0.026,-0.085c0.004,-0.019 0.009,-0.038 0.016,-0.056c0.005,-0.021 0.012,-0.042 0.019,-0.065c0.019,-0.068 0.038,-0.141 0.053,-0.212c0.003,-0.009 0.003,-0.02 0.006,-0.029c0.004,-0.017 0.007,-0.035 0.01,-0.052c0.008,-0.046 0.02,-0.094 0.027,-0.141c0.009,-0.053 0.017,-0.105 0.024,-0.158c0.003,-0.014 0.005,-0.026 0.007,-0.04c0,-0.012 0.002,-0.023 0.004,-0.034c0.011,-0.085 0.017,-0.17 0.023,-0.256c0.002,-0.015 0.002,-0.031 0.002,-0.047c0.002,-0.028 0.001,-0.058 0.003,-0.086c0.001,-0.05 0.006,-0.098 0.006,-0.148c0.001,-0.06 0,-0.119 0.001,-0.18l-0.383,-16.147c-0.001,-0.047 -0.003,-0.094 -0.006,-0.14c-0.002,-0.065 -0.011,-0.128 -0.018,-0.194c-0.003,-0.048 -0.004,-0.096 -0.011,-0.144c-0.002,-0.015 -0.004,-0.03 -0.005,-0.045c-0.006,-0.037 -0.014,-0.07 -0.018,-0.106c-0.018,-0.118 -0.04,-0.237 -0.066,-0.354c-0.004,-0.024 -0.007,-0.049 -0.013,-0.073c-0.005,-0.026 -0.014,-0.051 -0.021,-0.076c-0.04,-0.155 -0.088,-0.309 -0.14,-0.457c-0.011,-0.025 -0.017,-0.052 -0.025,-0.075c-0.064,-0.168 -0.137,-0.33 -0.217,-0.488c-0.007,-0.015 -0.011,-0.033 -0.021,-0.048c-0.014,-0.028 -0.032,-0.053 -0.049,-0.081c-0.056,-0.106 -0.119,-0.212 -0.185,-0.313c-0.016,-0.026 -0.03,-0.055 -0.046,-0.079c-0.014,-0.02 -0.027,-0.037 -0.042,-0.056c-0.03,-0.043 -0.062,-0.086 -0.094,-0.128c-0.027,-0.037 -0.056,-0.078 -0.084,-0.115c-0.02,-0.025 -0.044,-0.049 -0.063,-0.074c-0.023,-0.029 -0.049,-0.058 -0.074,-0.087c-0.022,-0.023 -0.038,-0.048 -0.061,-0.069c-0.048,-0.053 -0.099,-0.104 -0.149,-0.154c-0.009,-0.01 -0.018,-0.019 -0.026,-0.028c-0.003,-0.004 -0.006,-0.007 -0.01,-0.01c-0.059,-0.057 -0.119,-0.112 -0.184,-0.166c-0.019,-0.018 -0.045,-0.038 -0.068,-0.057c-0.015,-0.013 -0.032,-0.026 -0.048,-0.039c-0.018,-0.015 -0.037,-0.031 -0.055,-0.045c-0.058,-0.044 -0.117,-0.087 -0.176,-0.127c-0.012,-0.009 -0.025,-0.017 -0.038,-0.026c-0.016,-0.01 -0.029,-0.018 -0.041,-0.026c-0.034,-0.022 -0.064,-0.041 -0.094,-0.061c-0.059,-0.036 -0.116,-0.069 -0.176,-0.101c-0.008,-0.004 -0.016,-0.008 -0.025,-0.012c-0.01,-0.006 -0.023,-0.011 -0.036,-0.019c-0.038,-0.019 -0.076,-0.04 -0.118,-0.059c-0.059,-0.027 -0.122,-0.054 -0.181,-0.079c-0.005,-0.003 -0.011,-0.004 -0.014,-0.005c-0.007,-0.003 -0.014,-0.005 -0.019,-0.008c-0.052,-0.02 -0.106,-0.039 -0.156,-0.057c-0.061,-0.021 -0.12,-0.038 -0.183,-0.056c-0.003,-0.001 -0.007,-0.002 -0.009,-0.003c-0.003,-0.001 -0.006,-0.003 -0.007,-0.003c-0.069,-0.017 -0.14,-0.035 -0.212,-0.05c-0.033,-0.007 -0.073,-0.012 -0.109,-0.017c-0.022,-0.004 -0.044,-0.008 -0.066,-0.012c-0.016,-0.003 -0.031,-0.005 -0.048,-0.008c-0.086,-0.011 -0.169,-0.019 -0.256,-0.024c-0.016,-0.001 -0.033,-0.002 -0.049,-0.002l-3.839,-0.345l-0.619,-0.054l-6.221,-0.559l-8.224,-34.211c-0.045,-0.175 -0.103,-0.348 -0.164,-0.517c-0.021,-0.055 -0.046,-0.109 -0.068,-0.164c-0.048,-0.113 -0.1,-0.226 -0.154,-0.337c-0.015,-0.028 -0.026,-0.057 -0.039,-0.084c-0.013,-0.029 -0.035,-0.056 -0.051,-0.085c-0.073,-0.136 -0.154,-0.27 -0.237,-0.4c-0.02,-0.027 -0.034,-0.057 -0.05,-0.083c-0.011,-0.011 -0.019,-0.022 -0.028,-0.034c-0.054,-0.081 -0.113,-0.159 -0.175,-0.238c-0.032,-0.045 -0.064,-0.094 -0.1,-0.138c-0.009,-0.01 -0.017,-0.019 -0.023,-0.027c-0.037,-0.046 -0.077,-0.09 -0.116,-0.134c-0.05,-0.06 -0.102,-0.124 -0.154,-0.182c-0.016,-0.015 -0.03,-0.028 -0.043,-0.043c-0.037,-0.039 -0.078,-0.079 -0.115,-0.116c-0.047,-0.049 -0.091,-0.099 -0.141,-0.146c-0.025,-0.023 -0.048,-0.043 -0.072,-0.066c-0.038,-0.037 -0.084,-0.075 -0.122,-0.112c-0.04,-0.033 -0.073,-0.068 -0.109,-0.099c-0.039,-0.032 -0.077,-0.06 -0.115,-0.091c-0.039,-0.035 -0.082,-0.07 -0.126,-0.104c-0.023,-0.018 -0.047,-0.038 -0.069,-0.056c-0.06,-0.046 -0.123,-0.089 -0.184,-0.133c-0.031,-0.024 -0.066,-0.049 -0.098,-0.073c-0.011,-0.006 -0.021,-0.015 -0.03,-0.021c-0.105,-0.072 -0.209,-0.14 -0.315,-0.204c-0.007,-0.004 -0.014,-0.007 -0.018,-0.01c-0.021,-0.013 -0.044,-0.025 -0.066,-0.039c-0.075,-0.045 -0.154,-0.09 -0.234,-0.133c-0.023,-0.012 -0.046,-0.024 -0.072,-0.037c-0.036,-0.019 -0.077,-0.038 -0.114,-0.057c-0.04,-0.021 -0.084,-0.044 -0.124,-0.063c-0.05,-0.023 -0.101,-0.043 -0.149,-0.065c-0.036,-0.015 -0.072,-0.032 -0.108,-0.047c-0.018,-0.007 -0.036,-0.016 -0.055,-0.024c-0.1,-0.04 -0.201,-0.077 -0.302,-0.112c-0.002,-0.002 -0.004,-0.002 -0.01,-0.003c-0.013,-0.005 -0.027,-0.008 -0.042,-0.013c-0.082,-0.027 -0.163,-0.053 -0.245,-0.075c-0.025,-0.007 -0.053,-0.012 -0.078,-0.02c-0.038,-0.008 -0.072,-0.016 -0.107,-0.024c-0.035,-0.009 -0.072,-0.019 -0.107,-0.026c-0.06,-0.012 -0.116,-0.021 -0.175,-0.03c-0.028,-0.004 -0.056,-0.01 -0.085,-0.014c-0.008,-0.001 -0.017,-0.003 -0.028,-0.004c-0.094,-0.014 -0.19,-0.023 -0.287,-0.028c-0.016,-0.001 -0.035,-0.002 -0.054,-0.002l-65.392,-2.586l-37.411,7.372c-2.051,-0.082 -3.664,1.781 -3.607,4.159l1.297,54.91c0.057,2.382 1.763,4.372 3.812,4.453l7.08,0.244c-0.153,-6.43 4.223,-10.989 10.76,-10.689" style="fill:#555;fill-rule:nonzero;"/><path d="M118.341,113.535c5.044,0.199 9.248,5.111 9.387,10.969c0.137,5.858 -3.839,10.443 -8.884,10.243c-5.048,-0.2 -9.252,-5.107 -9.392,-10.966c-0.136,-5.857 3.842,-10.445 8.889,-10.246" style="fill:#555;fill-rule:nonzero;"/><path d="M92.744,93.708c0.035,-0.24 0.053,-0.489 0.047,-0.745c0.006,0.256 -0.012,0.504 -0.047,0.745m-1.251,2.352c0.097,-0.083 0.191,-0.169 0.28,-0.263c-0.089,0.094 -0.183,0.18 -0.28,0.263m0.566,-0.6c-0.034,0.047 -0.075,0.085 -0.111,0.13c0.079,-0.1 0.153,-0.204 0.221,-0.313c-0.03,0.048 -0.055,0.102 -0.088,0.149c-0.008,0.011 -0.014,0.023 -0.022,0.034m0.323,-0.542c-0.021,0.041 -0.047,0.075 -0.069,0.115c0.062,-0.116 0.116,-0.24 0.165,-0.367c-0.03,0.08 -0.054,0.164 -0.091,0.24c-0.002,0.005 -0.004,0.007 -0.005,0.012m0.23,-0.596c-0.007,0.028 -0.022,0.053 -0.032,0.08c0.048,-0.142 0.081,-0.293 0.112,-0.444c-0.024,0.115 -0.042,0.234 -0.075,0.345c-0.001,0.006 -0.003,0.013 -0.005,0.019m-1.666,2.109c0.018,-0.009 0.036,-0.022 0.056,-0.033c-0.013,0.008 -0.027,0.017 -0.04,0.024c-0.005,0.003 -0.011,0.007 -0.016,0.009m2.002,-2.852c0.007,-0.077 0.014,-0.156 0.019,-0.234c0.007,-0.084 0.011,-0.17 0.011,-0.255c0.002,-0.054 0.003,-0.109 -0.001,-0.163l-0.467,-19.76c-0,-0.042 -0.004,-0.085 -0.005,-0.127c-0.005,-0.118 -0.018,-0.234 -0.032,-0.35c-0.01,-0.074 -0.027,-0.146 -0.04,-0.219c-0.009,-0.056 -0.018,-0.111 -0.03,-0.166c-0.006,-0.033 -0.01,-0.067 -0.017,-0.1c-0.045,-0.194 -0.106,-0.382 -0.174,-0.565c-0.013,-0.032 -0.029,-0.062 -0.042,-0.095c-0.054,-0.132 -0.108,-0.264 -0.172,-0.389c-0.026,-0.049 -0.057,-0.094 -0.085,-0.143c-0.029,-0.05 -0.058,-0.098 -0.089,-0.148c-0.029,-0.047 -0.055,-0.099 -0.086,-0.144c-0.064,-0.095 -0.13,-0.187 -0.2,-0.275c-0.025,-0.03 -0.05,-0.059 -0.077,-0.09c-0.011,-0.012 -0.022,-0.025 -0.034,-0.038c-0.024,-0.028 -0.048,-0.058 -0.072,-0.085c-0.054,-0.059 -0.114,-0.119 -0.17,-0.175c-0.054,-0.052 -0.11,-0.103 -0.166,-0.152c-0.027,-0.023 -0.054,-0.044 -0.081,-0.065c-0.004,-0.005 -0.011,-0.009 -0.016,-0.013c-0.022,-0.018 -0.042,-0.036 -0.065,-0.054c-0.052,-0.04 -0.107,-0.079 -0.163,-0.117c-0.049,-0.035 -0.105,-0.07 -0.159,-0.104c-0.053,-0.031 -0.105,-0.062 -0.161,-0.092c-0.007,-0.003 -0.016,-0.007 -0.023,-0.011c-0.005,-0.003 -0.011,-0.006 -0.016,-0.009c-0.04,-0.021 -0.081,-0.042 -0.123,-0.062c-0.057,-0.026 -0.11,-0.05 -0.169,-0.073c-0.056,-0.023 -0.115,-0.044 -0.171,-0.064c-0.06,-0.02 -0.122,-0.038 -0.184,-0.057c-0.063,-0.016 -0.128,-0.032 -0.19,-0.044c-0.071,-0.015 -0.137,-0.027 -0.207,-0.035c-0.076,-0.01 -0.153,-0.018 -0.23,-0.022c-0.017,-0.001 -0.031,-0.002 -0.047,-0.002l-40.527,-1.602c-0.073,-0.003 -0.146,-0.003 -0.218,-0c-0.109,0.004 -0.222,0.014 -0.325,0.029c-0.042,0.007 -0.089,0.014 -0.13,0.023c-0.063,0.012 -0.124,0.025 -0.186,0.036c0.216,-0.042 0.443,-0.061 0.675,-0.051c-1.875,-0.074 -3.358,1.639 -3.307,3.817l0.468,19.759c0.051,2.176 1.618,4.011 3.493,4.085l40.525,1.602c0.233,0.009 0.461,-0.01 0.679,-0.054c-0.001,-0 -0.003,0.001 -0.004,0.001l0.185,-0.036c0.217,-0.044 0.423,-0.116 0.622,-0.205c0.062,-0.029 0.12,-0.065 0.181,-0.098c0.131,-0.072 0.259,-0.148 0.38,-0.238c0.029,-0.021 0.062,-0.034 0.089,-0.055c0.082,-0.067 0.163,-0.139 0.239,-0.215c0.005,-0.005 0.012,-0.009 0.019,-0.015c-0,-0.002 0.002,-0.003 0.004,-0.005c0.064,-0.065 0.127,-0.133 0.188,-0.203c0.054,-0.063 0.103,-0.127 0.153,-0.193c0.01,-0.013 0.018,-0.026 0.026,-0.039c0.01,-0.012 0.018,-0.026 0.028,-0.038c0.024,-0.035 0.049,-0.069 0.071,-0.105c0.039,-0.058 0.077,-0.118 0.109,-0.181c0.035,-0.058 0.068,-0.119 0.098,-0.18c0.005,-0.011 0.01,-0.022 0.015,-0.033c0.006,-0.01 0.009,-0.02 0.014,-0.03c0.019,-0.038 0.037,-0.077 0.055,-0.116c0.024,-0.06 0.051,-0.12 0.073,-0.18c0.023,-0.061 0.047,-0.122 0.064,-0.186c0.009,-0.024 0.015,-0.048 0.022,-0.072c0.005,-0.02 0.012,-0.039 0.017,-0.06c0.005,-0.018 0.012,-0.037 0.016,-0.056c0.02,-0.062 0.036,-0.128 0.051,-0.193c0.015,-0.068 0.027,-0.135 0.04,-0.203c0.011,-0.071 0.022,-0.142 0.032,-0.213" style="fill:#fff;fill-rule:nonzero;"/><path d="M116.817,97.733c0.002,-0.02 0.005,-0.039 0.009,-0.058c0.013,-0.113 0.022,-0.227 0.031,-0.341c0.001,-0.03 0.003,-0.061 0.002,-0.092c0.006,-0.112 0.009,-0.225 0.005,-0.341l-5.548,-25.366c-0.05,-0.197 -0.106,-0.387 -0.165,-0.573c-0.016,-0.056 -0.035,-0.109 -0.054,-0.164c-0.042,-0.127 -0.083,-0.252 -0.127,-0.373c-0.024,-0.063 -0.045,-0.123 -0.071,-0.186c-0.041,-0.107 -0.084,-0.214 -0.129,-0.316c-0.026,-0.061 -0.053,-0.122 -0.081,-0.182c-0.044,-0.099 -0.09,-0.195 -0.138,-0.289c-0.029,-0.06 -0.061,-0.122 -0.092,-0.18c-0.028,-0.053 -0.058,-0.106 -0.088,-0.158c-0.038,-0.07 -0.08,-0.139 -0.118,-0.204c-0.032,-0.049 -0.064,-0.097 -0.094,-0.144c-0.035,-0.059 -0.078,-0.115 -0.117,-0.172c-0.046,-0.064 -0.09,-0.124 -0.136,-0.185c-0.042,-0.055 -0.084,-0.11 -0.128,-0.162c-0.03,-0.036 -0.062,-0.072 -0.093,-0.107c-0.059,-0.07 -0.123,-0.136 -0.186,-0.2c-0.014,-0.013 -0.026,-0.027 -0.038,-0.04c-0.079,-0.076 -0.159,-0.146 -0.239,-0.212c-0.016,-0.015 -0.031,-0.027 -0.047,-0.039c-0.08,-0.064 -0.161,-0.124 -0.246,-0.181c-0.01,-0.007 -0.021,-0.014 -0.034,-0.023c-0.083,-0.055 -0.17,-0.106 -0.258,-0.153c-0.01,-0.005 -0.024,-0.011 -0.033,-0.017c-0.09,-0.046 -0.182,-0.088 -0.273,-0.124c-0.011,-0.004 -0.02,-0.008 -0.03,-0.012c-0.094,-0.035 -0.192,-0.068 -0.289,-0.094c-0.004,-0.001 -0.009,-0.002 -0.015,-0.004c-0.091,-0.023 -0.183,-0.042 -0.278,-0.057c-0.017,-0.003 -0.035,-0.007 -0.053,-0.01c-0.104,-0.014 -0.209,-0.025 -0.316,-0.03l-2.471,-0.097c-0.112,-0.004 -0.217,-0.001 -0.324,0.005c-0.059,0.004 -0.118,0.01 -0.175,0.018c-0.09,0.009 -0.18,0.018 -0.266,0.035l-0.003,0l-0.186,0.037c0.048,-0.009 0.099,-0.018 0.149,-0.026c0.036,-0.006 0.079,-0.006 0.116,-0.011c-1.885,0.213 -3.313,2.036 -3.258,4.312l0.595,25.121c0.058,2.475 1.843,4.556 3.972,4.641l7.421,0.293c0.265,0.01 0.522,-0.01 0.77,-0.06c-0.002,0 -0.002,0 -0.002,0.002l0.006,-0.002c0.002,0 0.002,-0.001 0.002,-0.001l0.095,-0.019c0.026,-0.005 0.032,-0.007 0.082,-0.016c0.121,-0.025 0.243,-0.056 0.361,-0.095c0.039,-0.012 0.074,-0.027 0.113,-0.039c0.08,-0.03 0.158,-0.061 0.234,-0.095c0.042,-0.019 0.082,-0.038 0.123,-0.058c0.071,-0.037 0.144,-0.077 0.215,-0.12c0.037,-0.021 0.073,-0.042 0.11,-0.066c0.077,-0.05 0.153,-0.105 0.229,-0.162c0.024,-0.019 0.05,-0.035 0.074,-0.056c0.097,-0.077 0.191,-0.161 0.279,-0.249c0.074,-0.075 0.15,-0.154 0.219,-0.235c0.014,-0.016 0.025,-0.033 0.038,-0.048c0.054,-0.068 0.11,-0.136 0.16,-0.207c0.017,-0.023 0.035,-0.047 0.049,-0.072c0.047,-0.066 0.09,-0.135 0.134,-0.205c0.012,-0.02 0.025,-0.04 0.037,-0.06c0.05,-0.09 0.1,-0.18 0.146,-0.274c0.007,-0.017 0.017,-0.037 0.025,-0.056c0.041,-0.086 0.078,-0.174 0.114,-0.264c0.006,-0.014 0.013,-0.029 0.017,-0.044c0.038,-0.098 0.074,-0.197 0.102,-0.297c0.008,-0.025 0.015,-0.05 0.024,-0.074c0.03,-0.103 0.056,-0.208 0.079,-0.316c0.003,-0.015 0.005,-0.028 0.008,-0.043c0.021,-0.101 0.038,-0.205 0.054,-0.308" style="fill:#fff;fill-rule:nonzero;"/><path d="M150.281,62.139c-0.351,-1.51 -1.837,-2.47 -3.358,-2.17l-27.6,5.449c-1.595,0.315 -2.612,1.887 -2.245,3.47l5.605,24.236l0.036,-0.007c0.324,1.402 1.702,2.293 3.114,2.015l28.006,-5.532c1.479,-0.292 2.422,-1.751 2.08,-3.219l-5.638,-24.242Z" style="fill:#fff;fill-rule:nonzero;"/><path d="M119.106,128.237l-0.385,0.076c-0.225,0.045 -0.46,0.063 -0.702,0.054l0.368,-0.008c0.241,0.008 0.492,-0.077 0.719,-0.122" style="fill:#fff;fill-rule:nonzero;"/><g><clipPath id="_clip1"><path d="M118.721,128.313c-0.109,0.022 -0.22,0.037 -0.333,0.046c0.241,0.008 0.492,-0.078 0.718,-0.123l-0.385,0.077Zm-0.702,0.054c0.125,0.004 0.248,0.001 0.369,-0.008l-0.001,-0l-0.368,0.008Z" clip-rule="nonzero"/></clipPath><g clip-path="url(#_clip1)"><path d="M118.019,128.367l0.386,-0.076c0.077,0.002 0.154,0.002 0.229,0l-0.384,0.076c-0.078,0.002 -0.153,0.001 -0.231,0" style="fill:#fff;fill-rule:nonzero;"/><path d="M118.25,128.367l0.385,-0.076c0.112,-0.005 0.226,-0.015 0.337,-0.031l-0.386,0.075c-0.11,0.017 -0.221,0.027 -0.336,0.032" style="fill:#fff;fill-rule:nonzero;"/><path d="M118.586,128.335l0.386,-0.076c0.046,-0.006 0.09,-0.014 0.134,-0.023l-0.385,0.076c-0.045,0.008 -0.089,0.016 -0.135,0.023" style="fill:#fff;fill-rule:nonzero;"/></g></g><path d="M116.841,118.799l0.387,-0.075c0.305,-0.061 0.622,-0.087 0.95,-0.073l-0.386,0.075c-0.325,-0.012 -0.645,0.012 -0.951,0.073" style="fill:#fff;fill-rule:nonzero;"/><g><clipPath id="_clip2"><path d="M117.228,118.724l-0.338,0.066c0.291,-0.055 0.594,-0.076 0.901,-0.065l0.386,-0.074c-0.057,-0.003 -0.114,-0.004 -0.171,-0.004c-0.267,-0 -0.526,0.026 -0.778,0.077Zm-0.387,0.075l0.049,-0.009c-0.017,0.003 -0.033,0.006 -0.049,0.009Z" clip-rule="nonzero"/></clipPath><g clip-path="url(#_clip2)"><path d="M116.841,118.799l0.387,-0.075c0.057,-0.013 0.119,-0.023 0.179,-0.032l-0.384,0.076c-0.061,0.009 -0.12,0.02 -0.182,0.031" style="fill:#fff;fill-rule:nonzero;"/><path d="M117.022,118.768l0.385,-0.076c0.15,-0.022 0.303,-0.036 0.458,-0.042l-0.385,0.076c-0.154,0.006 -0.305,0.021 -0.458,0.042" style="fill:#fff;fill-rule:nonzero;"/><path d="M117.481,118.725l0.385,-0.076c0.102,-0.004 0.205,-0.003 0.312,0.001l-0.386,0.075c-0.104,-0.003 -0.206,-0.003 -0.311,0" style="fill:#fff;fill-rule:nonzero;"/></g></g><path d="M119.39,129.699l-0.382,0.076c2.171,-0.429 3.769,-2.611 3.707,-5.296c-0.074,-3.067 -2.28,-5.649 -4.923,-5.754l0.386,-0.075c2.642,0.105 4.846,2.685 4.92,5.753c0.064,2.686 -1.532,4.868 -3.708,5.296" style="fill:#fff;fill-rule:nonzero;"/><g><clipPath id="_clip3"><path d="M117.791,118.725c2.644,0.106 4.85,2.687 4.923,5.754c0.063,2.686 -1.535,4.867 -3.706,5.296l0.382,-0.076c2.176,-0.428 3.772,-2.61 3.708,-5.296c-0.074,-3.067 -2.278,-5.647 -4.921,-5.752l-0.386,0.074Z" clip-rule="nonzero"/></clipPath><g clip-path="url(#_clip3)"><path d="M117.792,118.725l0.386,-0.075c0.021,0.002 0.042,0.002 0.064,0.003l-0.385,0.076c-0.02,-0.001 -0.041,-0.002 -0.065,-0.004" style="fill:#fff;fill-rule:nonzero;"/><path d="M117.857,118.73l0.385,-0.076c0.11,0.007 0.22,0.017 0.327,0.03l-0.384,0.077c-0.108,-0.015 -0.217,-0.025 -0.328,-0.031" style="fill:#fff;fill-rule:nonzero;"/><path d="M118.185,118.76l0.385,-0.077c0.095,0.014 0.195,0.03 0.288,0.05l-0.383,0.075c-0.098,-0.02 -0.194,-0.035 -0.29,-0.048" style="fill:#fff;fill-rule:nonzero;"/><path d="M118.475,118.808l0.383,-0.075c0.091,0.019 0.181,0.039 0.27,0.064l-0.386,0.075c-0.089,-0.024 -0.178,-0.045 -0.267,-0.064" style="fill:#fff;fill-rule:nonzero;"/><path d="M118.742,118.872l0.386,-0.076c0.086,0.024 0.17,0.05 0.254,0.079l-0.38,0.076c-0.085,-0.028 -0.172,-0.056 -0.26,-0.079" style="fill:#fff;fill-rule:nonzero;"/><path d="M119.002,118.951l0.38,-0.076c0.086,0.028 0.166,0.058 0.246,0.091l-0.386,0.074c-0.079,-0.03 -0.162,-0.061 -0.24,-0.089" style="fill:#fff;fill-rule:nonzero;"/><path d="M119.242,119.041l0.386,-0.075c0.079,0.033 0.158,0.066 0.235,0.104l-0.383,0.074c-0.08,-0.036 -0.156,-0.07 -0.238,-0.103" style="fill:#fff;fill-rule:nonzero;"/><path d="M119.48,119.144l0.383,-0.075c0.078,0.036 0.154,0.075 0.232,0.116l-0.386,0.076c-0.075,-0.041 -0.151,-0.08 -0.229,-0.117" style="fill:#fff;fill-rule:nonzero;"/><path d="M119.709,119.261l0.386,-0.076c0.074,0.042 0.149,0.085 0.225,0.131l-0.384,0.074c-0.077,-0.044 -0.15,-0.088 -0.227,-0.129" style="fill:#fff;fill-rule:nonzero;"/><path d="M119.936,119.39l0.384,-0.074c0.077,0.045 0.152,0.094 0.226,0.145l-0.386,0.075c-0.072,-0.05 -0.148,-0.099 -0.224,-0.146" style="fill:#fff;fill-rule:nonzero;"/><path d="M120.16,119.536l0.386,-0.075c0.077,0.052 0.151,0.107 0.225,0.164l-0.384,0.074c-0.075,-0.056 -0.149,-0.11 -0.227,-0.163" style="fill:#fff;fill-rule:nonzero;"/><path d="M120.386,119.699l0.384,-0.074c0.076,0.059 0.154,0.119 0.226,0.183l-0.384,0.077c-0.073,-0.064 -0.15,-0.125 -0.226,-0.186" style="fill:#fff;fill-rule:nonzero;"/><path d="M120.612,119.885l0.385,-0.077c0.079,0.069 0.157,0.14 0.234,0.215l-0.385,0.074c-0.077,-0.073 -0.155,-0.143 -0.234,-0.212" style="fill:#fff;fill-rule:nonzero;"/><path d="M120.847,120.097l0.385,-0.074c0.085,0.079 0.162,0.162 0.241,0.247l-0.386,0.076c-0.077,-0.085 -0.158,-0.169 -0.24,-0.249" style="fill:#fff;fill-rule:nonzero;"/><path d="M121.087,120.346l0.386,-0.076c0.09,0.096 0.174,0.197 0.255,0.299l-0.385,0.077c-0.082,-0.104 -0.168,-0.204 -0.256,-0.3" style="fill:#fff;fill-rule:nonzero;"/><path d="M121.343,120.645l0.385,-0.077c0.1,0.124 0.194,0.254 0.281,0.387l-0.381,0.075c-0.091,-0.133 -0.187,-0.262 -0.285,-0.385" style="fill:#fff;fill-rule:nonzero;"/><path d="M121.628,121.03l0.381,-0.075c0.134,0.195 0.255,0.399 0.365,0.611l-0.384,0.077c-0.11,-0.213 -0.232,-0.418 -0.362,-0.613" style="fill:#fff;fill-rule:nonzero;"/><path d="M121.99,121.643l0.383,-0.077c0.241,0.46 0.426,0.956 0.55,1.479l-0.385,0.075c-0.124,-0.522 -0.311,-1.018 -0.548,-1.477" style="fill:#fff;fill-rule:nonzero;"/><path d="M122.538,123.12l0.385,-0.076c0.054,0.224 0.094,0.453 0.123,0.685l-0.382,0.076c-0.03,-0.232 -0.072,-0.461 -0.126,-0.685" style="fill:#fff;fill-rule:nonzero;"/><path d="M122.665,123.805l0.382,-0.076c0.024,0.164 0.037,0.327 0.046,0.494l-0.386,0.075c-0.009,-0.166 -0.023,-0.33 -0.042,-0.493" style="fill:#fff;fill-rule:nonzero;"/><path d="M122.706,124.298l0.386,-0.075c0.001,0.059 0.004,0.119 0.005,0.18c0.004,0.077 0.002,0.153 0.002,0.23l-0.384,0.076c0.001,-0.077 -0.001,-0.153 -0.001,-0.23c-0.001,-0.061 -0.005,-0.122 -0.008,-0.181" style="fill:#fff;fill-rule:nonzero;"/><path d="M122.715,124.709l0.385,-0.076c-0.001,0.121 -0.008,0.241 -0.013,0.361l-0.388,0.076c0.01,-0.119 0.014,-0.24 0.016,-0.361" style="fill:#fff;fill-rule:nonzero;"/><path d="M122.699,125.07l0.388,-0.075c-0.01,0.11 -0.021,0.219 -0.035,0.326l-0.382,0.078c0.01,-0.109 0.023,-0.219 0.029,-0.329" style="fill:#fff;fill-rule:nonzero;"/><path d="M122.67,125.398l0.382,-0.077c-0.011,0.102 -0.026,0.202 -0.044,0.301l-0.383,0.075c0.018,-0.098 0.031,-0.198 0.045,-0.299" style="fill:#fff;fill-rule:nonzero;"/><path d="M122.625,125.698l0.383,-0.075c-0.014,0.096 -0.035,0.191 -0.055,0.285l-0.384,0.077c0.021,-0.096 0.04,-0.191 0.056,-0.287" style="fill:#fff;fill-rule:nonzero;"/><path d="M122.568,125.985l0.385,-0.077c-0.019,0.094 -0.044,0.184 -0.068,0.275l-0.383,0.075c0.025,-0.09 0.046,-0.181 0.066,-0.273" style="fill:#fff;fill-rule:nonzero;"/><path d="M122.502,126.257l0.383,-0.075c-0.025,0.089 -0.051,0.177 -0.078,0.265l-0.385,0.075c0.028,-0.087 0.053,-0.175 0.08,-0.265" style="fill:#fff;fill-rule:nonzero;"/><path d="M122.423,126.523l0.385,-0.076c-0.03,0.088 -0.062,0.174 -0.091,0.259l-0.388,0.076c0.035,-0.085 0.065,-0.172 0.094,-0.259" style="fill:#fff;fill-rule:nonzero;"/><path d="M122.329,126.782l0.388,-0.076c-0.034,0.086 -0.069,0.17 -0.105,0.254l-0.383,0.076c0.036,-0.084 0.071,-0.168 0.1,-0.254" style="fill:#fff;fill-rule:nonzero;"/><path d="M122.229,127.036l0.383,-0.076c-0.036,0.085 -0.076,0.169 -0.118,0.251l-0.384,0.077c0.04,-0.082 0.08,-0.167 0.119,-0.252" style="fill:#fff;fill-rule:nonzero;"/><path d="M122.11,127.288l0.385,-0.077c-0.043,0.087 -0.09,0.172 -0.135,0.254l-0.385,0.075c0.047,-0.082 0.092,-0.165 0.135,-0.252" style="fill:#fff;fill-rule:nonzero;"/><path d="M121.975,127.54l0.385,-0.075c-0.049,0.086 -0.101,0.171 -0.153,0.253l-0.387,0.076c0.056,-0.082 0.106,-0.166 0.155,-0.254" style="fill:#fff;fill-rule:nonzero;"/><path d="M121.82,127.794l0.386,-0.076c-0.059,0.087 -0.117,0.175 -0.178,0.257l-0.384,0.076c0.062,-0.083 0.12,-0.17 0.176,-0.257" style="fill:#fff;fill-rule:nonzero;"/><path d="M121.644,128.051l0.385,-0.076c-0.071,0.093 -0.142,0.183 -0.215,0.271l-0.385,0.075c0.076,-0.086 0.146,-0.177 0.215,-0.27" style="fill:#fff;fill-rule:nonzero;"/><path d="M121.429,128.321l0.385,-0.075c-0.083,0.1 -0.173,0.194 -0.268,0.285l-0.381,0.076c0.09,-0.091 0.178,-0.186 0.264,-0.286" style="fill:#fff;fill-rule:nonzero;"/><path d="M121.165,128.607l0.382,-0.076c-0.115,0.117 -0.237,0.227 -0.365,0.329l-0.385,0.075c0.128,-0.101 0.249,-0.212 0.368,-0.328" style="fill:#fff;fill-rule:nonzero;"/><path d="M120.796,128.935l0.386,-0.076c-0.525,0.417 -1.131,0.709 -1.792,0.84l-0.382,0.076c0.66,-0.13 1.264,-0.421 1.788,-0.84" style="fill:#fff;fill-rule:nonzero;"/></g></g><path d="M118.019,128.367c1.942,0.076 3.473,-1.686 3.417,-3.939c-0.054,-2.254 -1.667,-4.143 -3.61,-4.221c-1.94,-0.077 -3.471,1.69 -3.419,3.943c0.055,2.252 1.672,4.14 3.612,4.217m-0.228,-9.642c2.644,0.106 4.85,2.687 4.923,5.754c0.071,3.065 -2.016,5.473 -4.659,5.369c-2.642,-0.104 -4.848,-2.682 -4.925,-5.749c-0.071,-3.068 2.02,-5.477 4.661,-5.374" style="fill:#fff;fill-rule:nonzero;"/><path d="M75.229,123.163c0.025,-0.112 0.047,-0.222 0.066,-0.335c0.021,-0.116 0.035,-0.232 0.054,-0.349c0.004,-0.048 0.012,-0.092 0.017,-0.139c0.005,-0.023 0.008,-0.043 0.012,-0.065c0.025,-0.199 0.042,-0.402 0.056,-0.605c0.002,-0.035 0.002,-0.07 0.004,-0.104c0.006,-0.074 0.006,-0.148 0.01,-0.222c0.002,-0.113 0.011,-0.225 0.013,-0.342c0.002,-0.14 -0,-0.283 -0.002,-0.426c-0.003,-0.111 -0.007,-0.222 -0.012,-0.331c-0.001,-0.02 -0.004,-0.038 -0.005,-0.057c-0.017,-0.267 -0.039,-0.531 -0.071,-0.792c-0.002,-0.02 -0.003,-0.041 -0.005,-0.061c-0.006,-0.04 -0.013,-0.08 -0.018,-0.119c-0.019,-0.136 -0.041,-0.272 -0.064,-0.404c-0.012,-0.064 -0.02,-0.128 -0.033,-0.19c-0.027,-0.153 -0.061,-0.304 -0.096,-0.454c-0.007,-0.032 -0.012,-0.066 -0.018,-0.097c-0.003,-0.009 -0.005,-0.016 -0.007,-0.023c-0.051,-0.213 -0.108,-0.424 -0.17,-0.631c-0.017,-0.051 -0.031,-0.1 -0.049,-0.149c-0.052,-0.173 -0.112,-0.346 -0.171,-0.514c-0.015,-0.042 -0.031,-0.084 -0.046,-0.124c-0.074,-0.201 -0.156,-0.397 -0.239,-0.592c-0.02,-0.042 -0.04,-0.083 -0.058,-0.123c-0.074,-0.161 -0.15,-0.32 -0.23,-0.477c-0.013,-0.027 -0.025,-0.057 -0.039,-0.085c-0.008,-0.017 -0.02,-0.033 -0.028,-0.051c-0.094,-0.176 -0.19,-0.347 -0.288,-0.516c-0.008,-0.013 -0.017,-0.027 -0.025,-0.041c-0.094,-0.155 -0.189,-0.307 -0.289,-0.457c-0.013,-0.018 -0.025,-0.038 -0.036,-0.057c-0.016,-0.02 -0.027,-0.036 -0.042,-0.054c-0.146,-0.215 -0.297,-0.423 -0.457,-0.625c-0.007,-0.01 -0.014,-0.02 -0.023,-0.029c-0.018,-0.023 -0.037,-0.044 -0.055,-0.065c-0.115,-0.145 -0.236,-0.285 -0.359,-0.422c-0.019,-0.02 -0.036,-0.041 -0.053,-0.061c-0.011,-0.01 -0.021,-0.021 -0.032,-0.032c-0.128,-0.139 -0.26,-0.276 -0.395,-0.406c-0.005,-0.005 -0.011,-0.012 -0.016,-0.017c-0.025,-0.024 -0.05,-0.046 -0.075,-0.069c-0.1,-0.094 -0.199,-0.187 -0.303,-0.277c-0.021,-0.015 -0.034,-0.031 -0.05,-0.045c-0.032,-0.026 -0.064,-0.05 -0.092,-0.074c-0.079,-0.068 -0.161,-0.134 -0.243,-0.198c-0.028,-0.022 -0.056,-0.046 -0.082,-0.067c-0.026,-0.021 -0.055,-0.039 -0.08,-0.059c-0.078,-0.057 -0.154,-0.112 -0.23,-0.167c-0.036,-0.024 -0.065,-0.049 -0.103,-0.074c-0.02,-0.013 -0.041,-0.027 -0.064,-0.042c-0.073,-0.049 -0.152,-0.097 -0.227,-0.148c-0.041,-0.024 -0.083,-0.052 -0.123,-0.078c-0.018,-0.012 -0.036,-0.02 -0.054,-0.033c-0.073,-0.043 -0.145,-0.084 -0.221,-0.125c-0.047,-0.026 -0.094,-0.056 -0.142,-0.082c-0.013,-0.008 -0.029,-0.014 -0.041,-0.021c-0.077,-0.04 -0.152,-0.078 -0.23,-0.115c-0.053,-0.026 -0.102,-0.053 -0.153,-0.078c-0.011,-0.004 -0.021,-0.009 -0.031,-0.013c-0.085,-0.04 -0.171,-0.075 -0.256,-0.111c-0.05,-0.022 -0.095,-0.045 -0.147,-0.064c-0.005,-0.003 -0.012,-0.006 -0.021,-0.008c-0.103,-0.041 -0.204,-0.078 -0.31,-0.116c-0.038,-0.013 -0.078,-0.029 -0.116,-0.043c-0.004,-0.001 -0.007,-0.001 -0.01,-0.004c-0.148,-0.05 -0.301,-0.095 -0.453,-0.137c-0.003,-0.001 -0.007,-0.002 -0.01,-0.003c-0.028,-0.008 -0.056,-0.013 -0.084,-0.02c-0.123,-0.033 -0.247,-0.063 -0.375,-0.089c-0.011,-0.004 -0.027,-0.006 -0.039,-0.01c-0.038,-0.007 -0.078,-0.013 -0.115,-0.02c-0.114,-0.02 -0.227,-0.041 -0.341,-0.058c-0.026,-0.003 -0.051,-0.009 -0.077,-0.012c-0.031,-0.004 -0.063,-0.005 -0.092,-0.009c-0.138,-0.017 -0.276,-0.029 -0.416,-0.039c-0.03,-0.001 -0.065,-0.008 -0.099,-0.009c-0.039,-0.002 -0.078,-0.004 -0.117,-0.006l-3.908,0.77c0.074,0.004 0.148,0.011 0.224,0.015c0.134,0.01 0.268,0.024 0.4,0.039c0.061,0.008 0.12,0.014 0.18,0.023c0.108,0.015 0.217,0.035 0.325,0.054c0.056,0.01 0.113,0.021 0.17,0.031c0.118,0.026 0.235,0.055 0.355,0.086c0.036,0.009 0.076,0.018 0.113,0.028c0.15,0.041 0.3,0.086 0.447,0.136c0.052,0.018 0.103,0.037 0.156,0.058c0.093,0.033 0.188,0.067 0.282,0.103c0.06,0.025 0.115,0.051 0.175,0.075c0.082,0.036 0.165,0.071 0.249,0.109c0.061,0.029 0.123,0.061 0.186,0.092c0.075,0.037 0.152,0.076 0.227,0.115c0.063,0.032 0.122,0.068 0.183,0.101c0.074,0.043 0.151,0.085 0.223,0.129c0.061,0.036 0.118,0.074 0.177,0.112c0.076,0.046 0.151,0.094 0.228,0.146c0.054,0.037 0.111,0.077 0.168,0.117c0.078,0.054 0.153,0.11 0.227,0.165c0.056,0.041 0.108,0.083 0.162,0.124c0.083,0.065 0.163,0.132 0.243,0.198c0.048,0.041 0.096,0.081 0.141,0.122c0.106,0.091 0.206,0.184 0.309,0.279c0.028,0.027 0.058,0.054 0.085,0.082c0.134,0.131 0.269,0.267 0.397,0.406c0.029,0.032 0.057,0.065 0.086,0.097c0.124,0.135 0.242,0.275 0.358,0.418c0.026,0.032 0.052,0.064 0.08,0.096c0.156,0.2 0.31,0.409 0.457,0.622c0.025,0.039 0.05,0.077 0.077,0.115c0.1,0.15 0.194,0.299 0.286,0.453c0.011,0.015 0.019,0.029 0.028,0.046c0.099,0.166 0.192,0.339 0.286,0.513c0.026,0.045 0.046,0.092 0.07,0.138c0.08,0.156 0.156,0.314 0.228,0.475c0.019,0.041 0.039,0.082 0.056,0.123c0.086,0.195 0.167,0.392 0.242,0.592c0.016,0.041 0.032,0.083 0.045,0.123c0.061,0.17 0.119,0.341 0.174,0.514c0.014,0.049 0.029,0.099 0.044,0.15c0.065,0.208 0.12,0.418 0.171,0.631c0.011,0.04 0.019,0.081 0.026,0.119c0.036,0.151 0.068,0.303 0.096,0.454c0.013,0.064 0.022,0.127 0.033,0.191c0.024,0.133 0.046,0.269 0.064,0.403c0.006,0.061 0.016,0.121 0.023,0.181c0.033,0.261 0.053,0.525 0.071,0.792c0.006,0.128 0.014,0.258 0.017,0.388c0.007,0.26 0.001,0.514 -0.011,0.769c-0.003,0.074 -0.005,0.148 -0.009,0.221c-0.017,0.261 -0.037,0.52 -0.072,0.774c-0.005,0.046 -0.014,0.092 -0.017,0.138c-0.035,0.232 -0.074,0.461 -0.119,0.687c-0.008,0.039 -0.016,0.079 -0.024,0.119c-0.052,0.245 -0.114,0.485 -0.181,0.723c-0.018,0.049 -0.029,0.098 -0.046,0.147c-0.071,0.236 -0.15,0.47 -0.24,0.698c-0.005,0.023 -0.018,0.046 -0.026,0.071c-0.083,0.211 -0.172,0.418 -0.268,0.622c-0.021,0.04 -0.039,0.083 -0.061,0.124c-0.101,0.213 -0.213,0.421 -0.33,0.624c-0.028,0.045 -0.056,0.092 -0.084,0.136c-0.099,0.162 -0.202,0.321 -0.309,0.475c-0.034,0.054 -0.07,0.108 -0.107,0.161c-0.125,0.173 -0.258,0.341 -0.391,0.504c-0.019,0.022 -0.037,0.044 -0.056,0.067c-0.159,0.192 -0.329,0.374 -0.506,0.548c-0.2,0.199 -0.409,0.383 -0.625,0.558c-0.168,0.135 -0.338,0.262 -0.512,0.383c-0.037,0.025 -0.073,0.05 -0.111,0.074c-0.189,0.124 -0.38,0.242 -0.576,0.349c-0.011,0.006 -0.022,0.011 -0.033,0.017c-0.191,0.102 -0.386,0.195 -0.582,0.28c-0.039,0.017 -0.075,0.033 -0.111,0.048c-0.202,0.083 -0.407,0.158 -0.617,0.224c-0.044,0.013 -0.084,0.024 -0.124,0.037c-0.219,0.064 -0.439,0.122 -0.663,0.166c1.301,-0.257 2.605,-0.513 3.907,-0.77c0.228,-0.044 0.447,-0.102 0.663,-0.167c0.041,-0.012 0.084,-0.023 0.124,-0.036c0.211,-0.066 0.417,-0.139 0.617,-0.223c0.038,-0.016 0.075,-0.033 0.112,-0.05c0.197,-0.084 0.391,-0.176 0.581,-0.277c0.012,-0.008 0.023,-0.013 0.037,-0.019c0.193,-0.108 0.387,-0.224 0.571,-0.349c0.038,-0.024 0.076,-0.049 0.114,-0.074c0.161,-0.112 0.32,-0.226 0.475,-0.348c0.012,-0.012 0.025,-0.023 0.037,-0.034c0.217,-0.175 0.424,-0.362 0.625,-0.56c0.005,-0.002 0.008,-0.005 0.011,-0.01c0.168,-0.166 0.331,-0.341 0.486,-0.524c0.003,-0.004 0.004,-0.008 0.01,-0.011c0.02,-0.026 0.038,-0.052 0.06,-0.077c0.11,-0.135 0.22,-0.267 0.323,-0.408c0.02,-0.029 0.04,-0.059 0.058,-0.088c0.041,-0.054 0.078,-0.108 0.116,-0.163c0.051,-0.074 0.103,-0.144 0.151,-0.22c0.052,-0.081 0.101,-0.167 0.152,-0.25c0.03,-0.046 0.057,-0.093 0.085,-0.141c0.015,-0.024 0.034,-0.049 0.044,-0.074c0.089,-0.152 0.171,-0.307 0.249,-0.465c0.014,-0.026 0.026,-0.053 0.037,-0.08c0.022,-0.044 0.04,-0.088 0.064,-0.131c0.039,-0.085 0.081,-0.167 0.117,-0.253c0.051,-0.119 0.101,-0.241 0.147,-0.364c0.011,-0.024 0.021,-0.048 0.03,-0.074c0.005,-0.009 0.008,-0.018 0.013,-0.028c0.06,-0.155 0.114,-0.316 0.166,-0.476c0.022,-0.063 0.041,-0.128 0.058,-0.192c0.015,-0.051 0.03,-0.098 0.047,-0.149c0.011,-0.049 0.027,-0.097 0.042,-0.145c0.045,-0.167 0.087,-0.336 0.125,-0.506c0.004,-0.024 0.009,-0.048 0.013,-0.071c0.008,-0.04 0.016,-0.08 0.023,-0.12" style="fill:#555;fill-rule:nonzero;"/><path d="M63.305,125.005l-0.374,0.072c-0.216,0.044 -0.444,0.061 -0.678,0.053l0.434,0.002c0.233,0.008 0.399,-0.084 0.618,-0.127" style="fill:#fff;fill-rule:nonzero;"/><g><clipPath id="_clip4"><path d="M62.932,125.077c-0.16,0.032 -0.326,0.05 -0.496,0.054l0.251,0.001c0.233,0.008 0.399,-0.084 0.618,-0.127l-0.373,0.072Zm-0.496,0.054l-0.183,-0.001c0.062,0.002 0.122,0.002 0.183,0.001Z" clip-rule="nonzero"/></clipPath><g clip-path="url(#_clip4)"><path d="M62.253,125.13l0.372,-0.073c0.075,0.002 0.15,0.002 0.222,-0l-0.369,0.073c-0.077,0.002 -0.151,0.002 -0.225,-0" style="fill:#fff;fill-rule:nonzero;"/><path d="M62.478,125.131l0.37,-0.075c0.11,-0.004 0.218,-0.014 0.326,-0.031l-0.372,0.076c-0.105,0.016 -0.215,0.026 -0.324,0.03" style="fill:#fff;fill-rule:nonzero;"/><path d="M62.802,125.1l0.372,-0.074c0.044,-0.006 0.086,-0.014 0.131,-0.021l-0.373,0.072c-0.043,0.009 -0.088,0.016 -0.13,0.023" style="fill:#fff;fill-rule:nonzero;"/></g></g><path d="M61.112,115.868l0.372,-0.074c0.297,-0.058 0.604,-0.083 0.92,-0.07l-0.373,0.072c-0.316,-0.011 -0.624,0.014 -0.919,0.072" style="fill:#fff;fill-rule:nonzero;"/><g><clipPath id="_clip5"><path d="M61.485,115.795l-0.373,0.074c0.295,-0.059 0.603,-0.083 0.919,-0.072l0.373,-0.073c-0.054,-0.002 -0.107,-0.003 -0.159,-0.003c-0.26,0 -0.514,0.025 -0.76,0.074Z" clip-rule="nonzero"/></clipPath><g clip-path="url(#_clip5)"><path d="M61.112,115.868l0.372,-0.074c0.059,-0.011 0.118,-0.021 0.174,-0.031l-0.37,0.074c-0.058,0.009 -0.118,0.019 -0.176,0.031" style="fill:#fff;fill-rule:nonzero;"/><path d="M61.288,115.837l0.37,-0.074c0.148,-0.021 0.295,-0.035 0.445,-0.04l-0.374,0.073c-0.15,0.005 -0.297,0.02 -0.441,0.041" style="fill:#fff;fill-rule:nonzero;"/><path d="M61.729,115.796l0.374,-0.072c0.101,-0.005 0.2,-0.004 0.3,0l-0.372,0.073c-0.101,-0.004 -0.201,-0.004 -0.302,-0.001" style="fill:#fff;fill-rule:nonzero;"/></g></g><path d="M63.581,126.42l-0.374,0.073c2.104,-0.414 3.651,-2.526 3.587,-5.127c-0.067,-2.969 -2.207,-5.467 -4.763,-5.569l0.372,-0.073c2.559,0.102 4.695,2.6 4.766,5.569c0.06,2.6 -1.484,4.713 -3.588,5.127" style="fill:#fff;fill-rule:nonzero;"/><g><clipPath id="_clip6"><path d="M62.031,115.797c2.557,0.102 4.696,2.601 4.763,5.569c0.064,2.601 -1.483,4.712 -3.587,5.127l0.375,-0.073c2.103,-0.415 3.647,-2.527 3.587,-5.127c-0.071,-2.969 -2.206,-5.468 -4.765,-5.569l-0.373,0.073Z" clip-rule="nonzero"/></clipPath><g clip-path="url(#_clip6)"><path d="M62.031,115.797l0.372,-0.073c0.023,0.002 0.044,0.002 0.064,0.003l-0.372,0.074c-0.022,-0.001 -0.042,-0.002 -0.064,-0.004" style="fill:#fff;fill-rule:nonzero;"/><path d="M62.095,115.801l0.372,-0.074c0.107,0.006 0.214,0.016 0.319,0.03l-0.374,0.073c-0.105,-0.013 -0.21,-0.023 -0.317,-0.029" style="fill:#fff;fill-rule:nonzero;"/><path d="M62.412,115.83l0.374,-0.073c0.092,0.012 0.185,0.027 0.278,0.046l-0.371,0.073c-0.093,-0.018 -0.187,-0.034 -0.281,-0.046" style="fill:#fff;fill-rule:nonzero;"/><path d="M62.693,115.876l0.371,-0.074c0.09,0.02 0.175,0.04 0.261,0.064l-0.372,0.072c-0.086,-0.022 -0.174,-0.043 -0.26,-0.062" style="fill:#fff;fill-rule:nonzero;"/><path d="M62.953,115.939l0.372,-0.073c0.084,0.023 0.167,0.049 0.249,0.076l-0.374,0.073c-0.081,-0.027 -0.164,-0.052 -0.247,-0.076" style="fill:#fff;fill-rule:nonzero;"/><path d="M63.2,116.014l0.374,-0.073c0.078,0.026 0.156,0.056 0.233,0.088l-0.37,0.073c-0.078,-0.031 -0.157,-0.06 -0.237,-0.088" style="fill:#fff;fill-rule:nonzero;"/><path d="M63.437,116.103l0.371,-0.073c0.077,0.03 0.153,0.063 0.231,0.1l-0.375,0.072c-0.074,-0.035 -0.15,-0.069 -0.227,-0.1" style="fill:#fff;fill-rule:nonzero;"/><path d="M63.664,116.202l0.375,-0.071c0.073,0.033 0.147,0.071 0.221,0.11l-0.371,0.074c-0.076,-0.04 -0.148,-0.077 -0.225,-0.113" style="fill:#fff;fill-rule:nonzero;"/><path d="M63.889,116.315l0.371,-0.074c0.076,0.041 0.147,0.083 0.219,0.127l-0.372,0.073c-0.072,-0.043 -0.145,-0.086 -0.218,-0.126" style="fill:#fff;fill-rule:nonzero;"/><path d="M64.107,116.441l0.372,-0.073c0.074,0.044 0.15,0.092 0.22,0.141l-0.374,0.073c-0.071,-0.049 -0.143,-0.097 -0.218,-0.141" style="fill:#fff;fill-rule:nonzero;"/><path d="M64.325,116.582l0.374,-0.073c0.073,0.05 0.146,0.104 0.215,0.158l-0.372,0.073c-0.071,-0.055 -0.141,-0.107 -0.217,-0.158" style="fill:#fff;fill-rule:nonzero;"/><path d="M64.542,116.74l0.372,-0.073c0.077,0.057 0.15,0.116 0.222,0.178l-0.374,0.073c-0.069,-0.061 -0.144,-0.121 -0.22,-0.178" style="fill:#fff;fill-rule:nonzero;"/><path d="M64.762,116.919l0.374,-0.074c0.077,0.067 0.152,0.136 0.227,0.208l-0.374,0.073c-0.073,-0.072 -0.15,-0.14 -0.227,-0.207" style="fill:#fff;fill-rule:nonzero;"/><path d="M64.989,117.125l0.374,-0.073c0.079,0.076 0.158,0.158 0.234,0.24l-0.375,0.072c-0.075,-0.082 -0.154,-0.161 -0.233,-0.239" style="fill:#fff;fill-rule:nonzero;"/><path d="M65.221,117.365l0.375,-0.072c0.084,0.092 0.166,0.189 0.246,0.288l-0.372,0.074c-0.081,-0.1 -0.164,-0.197 -0.249,-0.29" style="fill:#fff;fill-rule:nonzero;"/><path d="M65.471,117.655l0.371,-0.074c0.097,0.119 0.188,0.245 0.275,0.375l-0.373,0.071c-0.088,-0.128 -0.178,-0.253 -0.273,-0.372" style="fill:#fff;fill-rule:nonzero;"/><path d="M65.743,118.027l0.374,-0.071c0.125,0.187 0.244,0.385 0.351,0.59l-0.373,0.075c-0.105,-0.206 -0.224,-0.404 -0.352,-0.594" style="fill:#fff;fill-rule:nonzero;"/><path d="M66.096,118.621l0.372,-0.074c0.231,0.444 0.411,0.926 0.531,1.431l-0.371,0.073c-0.12,-0.505 -0.302,-0.985 -0.532,-1.43" style="fill:#fff;fill-rule:nonzero;"/><path d="M66.628,120.051l0.371,-0.074c0.052,0.218 0.093,0.439 0.122,0.665l-0.374,0.072c-0.029,-0.225 -0.069,-0.446 -0.119,-0.663" style="fill:#fff;fill-rule:nonzero;"/><path d="M66.747,120.714l0.374,-0.072c0.018,0.157 0.033,0.315 0.04,0.476l-0.371,0.074c-0.008,-0.161 -0.023,-0.32 -0.043,-0.478" style="fill:#fff;fill-rule:nonzero;"/><path d="M66.79,121.192l0.371,-0.074c0.003,0.058 0.005,0.116 0.008,0.175c0.001,0.074 0.002,0.148 0,0.223l-0.371,0.073c-0.001,-0.074 0,-0.148 -0.004,-0.223c0,-0.059 -0.003,-0.117 -0.004,-0.174" style="fill:#fff;fill-rule:nonzero;"/><path d="M66.799,121.589l0.371,-0.073c-0.001,0.118 -0.006,0.234 -0.015,0.349l-0.37,0.073c0.007,-0.115 0.012,-0.232 0.014,-0.349" style="fill:#fff;fill-rule:nonzero;"/><path d="M66.785,121.938l0.37,-0.074c-0.005,0.109 -0.017,0.213 -0.029,0.319l-0.374,0.073c0.013,-0.106 0.024,-0.211 0.033,-0.318" style="fill:#fff;fill-rule:nonzero;"/><path d="M66.752,122.256l0.374,-0.073c-0.013,0.097 -0.028,0.194 -0.044,0.29l-0.371,0.074c0.018,-0.096 0.031,-0.194 0.041,-0.291" style="fill:#fff;fill-rule:nonzero;"/><path d="M66.711,122.547l0.371,-0.074c-0.016,0.093 -0.035,0.185 -0.054,0.276l-0.372,0.074c0.022,-0.092 0.038,-0.184 0.055,-0.276" style="fill:#fff;fill-rule:nonzero;"/><path d="M66.657,122.824l0.371,-0.074c-0.021,0.09 -0.041,0.178 -0.064,0.266l-0.372,0.073c0.021,-0.088 0.046,-0.176 0.065,-0.265" style="fill:#fff;fill-rule:nonzero;"/><path d="M66.591,123.089l0.372,-0.073c-0.026,0.086 -0.051,0.17 -0.077,0.255l-0.372,0.074c0.027,-0.084 0.054,-0.17 0.077,-0.256" style="fill:#fff;fill-rule:nonzero;"/><path d="M66.514,123.345l0.372,-0.074c-0.025,0.085 -0.056,0.169 -0.089,0.25l-0.371,0.075c0.03,-0.083 0.06,-0.167 0.088,-0.251" style="fill:#fff;fill-rule:nonzero;"/><path d="M66.427,123.596l0.371,-0.074c-0.031,0.084 -0.064,0.166 -0.099,0.246l-0.375,0.073c0.037,-0.081 0.071,-0.163 0.103,-0.245" style="fill:#fff;fill-rule:nonzero;"/><path d="M66.324,123.84l0.375,-0.073c-0.035,0.083 -0.076,0.164 -0.117,0.244l-0.37,0.074c0.04,-0.08 0.078,-0.162 0.112,-0.245" style="fill:#fff;fill-rule:nonzero;"/><path d="M66.212,124.086l0.37,-0.075c-0.041,0.085 -0.083,0.166 -0.128,0.246l-0.374,0.074c0.045,-0.08 0.089,-0.161 0.132,-0.245" style="fill:#fff;fill-rule:nonzero;"/><path d="M66.08,124.33l0.374,-0.074c-0.048,0.084 -0.099,0.166 -0.15,0.246l-0.372,0.073c0.05,-0.08 0.102,-0.16 0.148,-0.245" style="fill:#fff;fill-rule:nonzero;"/><path d="M65.933,124.575l0.372,-0.073c-0.056,0.085 -0.112,0.168 -0.173,0.248l-0.37,0.074c0.057,-0.081 0.115,-0.165 0.171,-0.249" style="fill:#fff;fill-rule:nonzero;"/><path d="M65.762,124.824l0.37,-0.073c-0.066,0.089 -0.135,0.178 -0.206,0.262l-0.373,0.073c0.072,-0.085 0.142,-0.172 0.209,-0.262" style="fill:#fff;fill-rule:nonzero;"/><path d="M65.553,125.086l0.374,-0.073c-0.085,0.095 -0.169,0.188 -0.257,0.276l-0.374,0.073c0.089,-0.088 0.175,-0.18 0.257,-0.276" style="fill:#fff;fill-rule:nonzero;"/><path d="M65.295,125.362l0.374,-0.073c-0.114,0.113 -0.233,0.22 -0.357,0.318l-0.372,0.073c0.124,-0.099 0.243,-0.205 0.355,-0.318" style="fill:#fff;fill-rule:nonzero;"/><path d="M64.94,125.68l0.372,-0.073c-0.507,0.405 -1.092,0.687 -1.731,0.813l-0.373,0.073c0.64,-0.126 1.227,-0.407 1.732,-0.813" style="fill:#fff;fill-rule:nonzero;"/></g></g><path d="M62.253,125.13c1.88,0.074 3.359,-1.633 3.306,-3.813c-0.049,-2.181 -1.615,-4.011 -3.492,-4.084c-1.88,-0.076 -3.363,1.634 -3.309,3.815c0.049,2.179 1.617,4.008 3.495,4.082m-0.222,-9.333c2.556,0.102 4.696,2.6 4.763,5.569c0.072,2.969 -1.951,5.299 -4.507,5.198c-2.558,-0.101 -4.697,-2.597 -4.767,-5.564c-0.071,-2.969 1.953,-5.304 4.511,-5.203" style="fill:#fff;fill-rule:nonzero;"/><path d="M128.554,95.823c-0.073,-0.013 -0.145,-0.046 -0.209,-0.098c-0.192,-0.159 -0.218,-0.447 -0.059,-0.639l8.844,-10.637c0.158,-0.195 0.447,-0.217 0.64,-0.058c0.191,0.159 0.218,0.447 0.059,0.64l-8.844,10.635c-0.108,0.13 -0.274,0.185 -0.431,0.157" style="fill:#555;fill-rule:nonzero;"/><path d="M143.24,93.407c-0.075,-0.014 -0.146,-0.046 -0.209,-0.098c-0.192,-0.16 -0.219,-0.447 -0.059,-0.64l8.841,-10.635c0.161,-0.195 0.45,-0.218 0.642,-0.059c0.192,0.16 0.218,0.446 0.059,0.639l-8.843,10.637c-0.108,0.129 -0.276,0.184 -0.431,0.156" style="fill:#555;fill-rule:nonzero;"/><path d="M21.374,59.896l-4.184,-0.165l-0.018,0.303l22.075,5.219l4.182,0.166l-22.075,-5.221l0.02,-0.302Z" style="fill:#555;fill-rule:nonzero;"/><path d="M25.551,60.365l0.021,-0.302l-4.198,-0.166l-0.02,0.302l22.075,5.22l4.197,0.165l-22.075,-5.219Z" style="fill:#fff;fill-rule:nonzero;"/><path d="M29.755,60.228l-4.182,-0.165l-0.021,0.302l22.074,5.219l4.184,0.166l-22.073,-5.219l0.018,-0.303Z" style="fill:#555;fill-rule:nonzero;"/><path d="M33.952,60.393l-4.197,-0.165l-0.018,0.303l22.073,5.219l4.197,0.166l-22.075,-5.221l0.02,-0.302Z" style="fill:#fff;fill-rule:nonzero;"/><path d="M38.15,60.559l-4.198,-0.166l-0.02,0.302l22.075,5.221l4.198,0.166l-22.075,-5.22l0.02,-0.303Z" style="fill:#555;fill-rule:nonzero;"/><path d="M42.334,60.724l-4.184,-0.165l-0.02,0.303l22.075,5.22l4.182,0.165l-22.074,-5.22l0.021,-0.303Z" style="fill:#fff;fill-rule:nonzero;"/><path d="M46.531,60.89l-4.197,-0.166l-0.021,0.303l22.075,5.22l4.196,0.166l-22.076,-5.221l0.023,-0.302Z" style="fill:#555;fill-rule:nonzero;"/><path d="M50.716,61.056l-4.185,-0.166l-0.023,0.303l22.076,5.22l4.184,0.166l-22.075,-5.22l0.023,-0.303Z" style="fill:#fff;fill-rule:nonzero;"/><path d="M54.911,61.222l-4.195,-0.166l-0.023,0.303l22.074,5.22l4.199,0.166l-22.075,-5.221l0.02,-0.302Z" style="fill:#555;fill-rule:nonzero;"/><path d="M59.095,61.387l-4.184,-0.165l-0.02,0.302l22.075,5.221l4.181,0.164l-22.073,-5.219l0.021,-0.303Z" style="fill:#fff;fill-rule:nonzero;"/><path d="M63.293,61.552l-4.198,-0.165l-0.022,0.302l22.074,5.22l4.198,0.166l-22.072,-5.219l0.02,-0.304Z" style="fill:#555;fill-rule:nonzero;"/><path d="M67.474,61.718l-4.181,-0.166l-0.02,0.304l22.072,5.219l4.184,0.166l-22.075,-5.22l0.02,-0.303Z" style="fill:#fff;fill-rule:nonzero;"/><path d="M71.671,61.885l-4.197,-0.167l-0.019,0.303l22.074,5.221l4.198,0.166l-22.074,-5.22l0.018,-0.303Z" style="fill:#555;fill-rule:nonzero;"/><path d="M75.869,62.05l-4.198,-0.165l-0.019,0.302l22.075,5.22l2.87,0.113l1.328,0.053l-22.074,-5.22l0.018,-0.303Z" style="fill:#fff;fill-rule:nonzero;"/><path d="M102.126,67.435l-22.074,-5.219l-4.183,-0.166l-0.018,0.303l22.074,5.22l4.184,0.165l0.017,-0.303Z" style="fill:#555;fill-rule:nonzero;"/><path d="M40.888,74.078c-0.038,-0.007 -0.075,-0.024 -0.109,-0.052l-13.788,-11.853c-0.094,-0.082 -0.103,-0.225 -0.022,-0.32c0.08,-0.095 0.223,-0.107 0.32,-0.024l13.788,11.852c0.095,0.083 0.104,0.226 0.023,0.322c-0.054,0.063 -0.136,0.089 -0.212,0.075" style="fill:#555;fill-rule:nonzero;"/><path d="M95.508,75.605c-0.038,-0.007 -0.076,-0.023 -0.107,-0.051l-13.789,-11.853c-0.095,-0.082 -0.106,-0.226 -0.023,-0.321c0.079,-0.094 0.221,-0.107 0.32,-0.024l13.788,11.853c0.094,0.082 0.105,0.226 0.023,0.321c-0.054,0.064 -0.136,0.089 -0.212,0.075" style="fill:#555;fill-rule:nonzero;"/><path d="M141.137,110.134c0.423,2.191 -1.009,4.31 -3.2,4.733c-2.191,0.424 -4.31,-1.009 -4.734,-3.2c-0.423,-2.19 1.01,-4.31 3.201,-4.733c2.19,-0.424 4.31,1.009 4.733,3.2" style="fill:#fff;fill-rule:nonzero;"/><path d="M157.739,104.085l-16.394,3.169c0.613,0.434 1.109,1.034 1.405,1.757l15.367,-2.971l-0.378,-1.955Z" style="fill:#fff;fill-rule:nonzero;"/><path d="M158.463,107.828l-15.356,2.968c0.017,0.77 -0.191,1.503 -0.568,2.138l16.302,-3.151l-0.378,-1.955Z" style="fill:#fff;fill-rule:nonzero;"/><path d="M163.347,105.841c0.423,2.191 2.543,3.624 4.733,3.2c2.191,-0.423 3.624,-2.543 3.201,-4.733c-0.424,-2.191 -2.543,-3.624 -4.734,-3.2c-2.191,0.423 -3.623,2.542 -3.2,4.733" style="fill:#fff;fill-rule:nonzero;"/><path d="M145.686,106.415l16.394,-3.169c-0.407,0.632 -0.644,1.373 -0.649,2.154l-15.367,2.97l-0.378,-1.955Z" style="fill:#fff;fill-rule:nonzero;"/><path d="M146.409,110.158l15.356,-2.968c0.272,0.721 0.737,1.324 1.324,1.773l-16.302,3.15l-0.378,-1.955Z" style="fill:#fff;fill-rule:nonzero;"/><path d="M106.614,104.447l-2.987,-0.127c-0.386,-0.016 -0.711,0.283 -0.728,0.668c-0.016,0.386 0.283,0.711 0.668,0.728l2.988,0.127c0.385,0.016 0.711,-0.283 0.727,-0.669c0.017,-0.385 -0.283,-0.711 -0.668,-0.727" style="fill:#fff;fill-rule:nonzero;"/><path d="M117.128,114.321l6.478,-1.435l2.815,2.815l-9.293,-1.38Z" style="fill:#555;fill-rule:nonzero;"/><path d="M125.452,133.598c0,-0 -5.393,1.17 -6.061,1.067c-0.667,-0.103 2.038,-2.914 2.038,-2.914l6.118,-5.935l0.587,2.421l-2.682,5.361Z" style="fill:#555;fill-rule:nonzero;"/><path d="M116.324,113.716l6.876,-1.74l3.54,2.98l-5.94,2.128l-4.476,-3.368Z" style="fill:#555;fill-rule:nonzero;"/><path d="M39.55,129.775c-0,-0 7.757,0.124 19.374,0.607c5.808,0.231 12.582,0.549 19.837,0.938c3.627,0.203 7.374,0.413 11.182,0.626c3.807,0.234 7.674,0.471 11.542,0.708c3.865,0.264 7.73,0.527 11.536,0.786c3.806,0.247 7.547,0.556 11.17,0.819c7.244,0.549 14.002,1.108 19.792,1.629c11.582,1.02 19.29,1.9 19.29,1.9c-0,-0 -7.757,-0.122 -19.374,-0.605c-5.809,-0.23 -12.582,-0.547 -19.837,-0.937c-3.627,-0.207 -7.376,-0.382 -11.182,-0.628c-3.807,-0.234 -7.674,-0.472 -11.541,-0.709c-3.866,-0.264 -7.731,-0.528 -11.537,-0.787c-3.803,-0.28 -7.547,-0.555 -11.169,-0.821c-7.245,-0.55 -14.003,-1.108 -19.793,-1.629c-11.582,-1.019 -19.29,-1.897 -19.29,-1.897" style="fill:#555;fill-rule:nonzero;"/><path d="M44.467,87.868l-0.07,1.857l51.343,1.935l0.07,-1.857l-51.343,-1.935Z" style="fill:#555;"/><path d="M110.893,24.942c-1.502,-1.511 -4.599,-0.863 -6.918,1.447c-1.051,1.047 -1.76,2.255 -2.081,3.403c-0.324,1.16 0.009,2.404 0.858,3.257c0.851,0.855 2.095,1.197 3.257,0.876c1.148,-0.317 2.356,-1.02 3.406,-2.065c2.318,-2.31 2.98,-5.407 1.478,-6.918" style="fill:#555;fill-rule:nonzero;"/><path d="M93.225,42.63l-0.036,-0.036c-0.376,-0.376 -0.376,-0.985 -0,-1.361l10.198,-10.198l1.397,1.397l-10.198,10.198c-0.376,0.376 -0.985,0.376 -1.361,-0" style="fill:#555;fill-rule:nonzero;"/><path d="M92.803,23.348c-0.414,-0.414 -1.037,-0.452 -1.34,-0.063c-0.264,0.338 -0.144,0.892 0.225,1.261l4.142,4.135l-0.589,0.591l-4.142,-4.135c-0.37,-0.369 -0.924,-0.487 -1.261,-0.222c-0.388,0.304 -0.349,0.927 0.066,1.34l4.182,4.175l-0.589,0.591l-4.142,-4.135c-0.37,-0.369 -0.924,-0.487 -1.262,-0.222c-0.388,0.304 -0.348,0.927 0.066,1.34l4.183,4.175l1.36,1.358c0.837,0.835 2.069,0.956 2.753,0.271l0.153,-0.154l1.862,-1.867l0.153,-0.153c0.683,-0.686 0.559,-1.918 -0.277,-2.753l-5.543,-5.533Z" style="fill:#555;fill-rule:nonzero;"/><path d="M107.409,42.563l-0.036,0.036c-0.376,0.376 -0.985,0.376 -1.361,-0l-10.198,-10.198l1.397,-1.397l10.198,10.198c0.376,0.376 0.376,0.985 0,1.361" style="fill:#555;fill-rule:nonzero;"/><path d="M36.873,33.026c-1.397,-0 -2.53,1.133 -2.53,2.529c-0,1.397 1.133,2.53 2.53,2.53c1.397,-0 2.53,-1.133 2.53,-2.53c-0,-1.396 -1.133,-2.529 -2.53,-2.529" style="fill:#555;fill-rule:nonzero;"/><path d="M169.546,33.026c-1.397,-0 -2.529,1.133 -2.529,2.529c0,1.397 1.132,2.53 2.529,2.53c1.397,-0 2.53,-1.133 2.53,-2.53c0,-1.396 -1.133,-2.529 -2.53,-2.529" style="fill:#555;fill-rule:nonzero;"/><path d="M52.226,164.575c-1.397,0 -2.53,1.132 -2.53,2.529c-0,1.398 1.133,2.53 2.53,2.53c1.397,0 2.53,-1.132 2.53,-2.53c-0,-1.397 -1.133,-2.529 -2.53,-2.529" style="fill:#555;fill-rule:nonzero;"/><path d="M155.065,164.575c-1.397,0 -2.529,1.132 -2.529,2.529c0,1.398 1.132,2.53 2.529,2.53c1.397,0 2.53,-1.132 2.53,-2.53c0,-1.397 -1.133,-2.529 -2.53,-2.529" style="fill:#555;fill-rule:nonzero;"/><rect x="3.263" y="95.878" width="24.665" height="1.808" style="fill:#555;"/><rect x="180.397" y="95.878" width="24.665" height="1.808" style="fill:#555;"/><rect x="3.263" y="69.66" width="24.665" height="1.808" style="fill:#555;"/><rect x="180.397" y="69.66" width="24.665" height="1.808" style="fill:#555;"/><g transform="matrix(16.2734,0,0,16.2734,25.7881,91.4673)"></g><text x="3.263px" y="91.467px" style="font-family:'Helvetica';font-size:16.273px;fill:#555;">2<tspan x="16.738px " y="91.467px ">0</tspan></text><g transform="matrix(16.2734,0,0,16.2734,201.118,91.4673)"></g><text x="184.126px" y="91.467px" style="font-family:'Helvetica';font-size:16.273px;fill:#555;">2<tspan x="192.067px " y="91.467px ">4</tspan></text><g transform="matrix(0.760962,-0.648797,0.648797,0.760962,-38.3493,-170.087)"><g transform="matrix(16.2734,0,0,16.2734,-56.3376,212.76)"></g><text x="-66.278px" y="212.76px" style="font-family:'Helvetica';font-size:16.273px;fill:#555;">F</text></g><g transform="matrix(0.855002,-0.518625,0.518625,0.855002,-19.1349,-134.441)"><g transform="matrix(16.2734,0,0,16.2734,-6.80023,178.442)"></g><text x="-19.458px" y="178.442px" style="font-family:'Helvetica';font-size:16.273px;fill:#555;">O</text></g><g transform="matrix(0.938766,-0.344556,0.344556,0.938766,-3.93823,-88.1598)"><g transform="matrix(16.2734,0,0,16.2734,44.2436,127.358)"></g><text x="31.586px" y="127.358px" style="font-family:'Helvetica';font-size:16.273px;fill:#555;">O</text></g><g transform="matrix(0.985233,-0.171218,0.171218,0.985233,1.95849,-43.2918)"><g transform="matrix(16.2734,0,0,16.2734,82.2256,71.933)"></g><text x="70.473px" y="71.933px" style="font-family:'Helvetica';font-size:16.273px;fill:#555;">D</text></g><g transform="matrix(0.999308,0.0371955,-0.0371955,0.999308,-1.40045,9.27605)"><g transform="matrix(16.2735,0,0,16.2735,112.474,0.122667)"></g><text x="102.533px" y="0.123px" style="font-family:'Helvetica';font-size:16.273px;fill:#555;">T</text></g><g transform="matrix(0.983008,0.183563,-0.183563,0.983008,-10.3056,45.33)"><g transform="matrix(16.2734,0,0,16.2734,125.705,-53.5704)"></g><text x="113.953px" y="-53.57px" style="font-family:'Helvetica';font-size:16.273px;fill:#555;">R</text></g><g transform="matrix(0.939823,0.341662,-0.341662,0.939823,-26.3191,83.4297)"><g transform="matrix(16.2734,0,0,16.2734,129.708,-114.727)"></g><text x="117.956px" y="-114.727px" style="font-family:'Helvetica';font-size:16.273px;fill:#555;">U</text></g><g transform="matrix(0.873054,0.487623,-0.487623,0.873054,-47.8279,117.716)"><g transform="matrix(16.2734,0,0,16.2734,124.067,-174.503)"></g><text x="112.315px" y="-174.503px" style="font-family:'Helvetica';font-size:16.273px;fill:#555;">C</text></g><g transform="matrix(0.777409,0.628995,-0.628995,0.777409,-76.4046,149.903)"><g transform="matrix(16.2734,0,0,16.2734,106.654,-236.23)"></g><text x="95.8px" y="-236.23px" style="font-family:'Helvetica';font-size:16.273px;fill:#555;">K</text></g><g transform="matrix(0.897041,0.441948,-0.441948,0.897041,-40.3241,107.089)"><g transform="matrix(16.2734,0,0,16.2734,128.2,17.3395)"></g><text x="118.259px" y="17.34px" style="font-family:'Helvetica';font-size:16.273px;fill:#555;">F</text></g><g transform="matrix(0.946736,0.32201,-0.32201,0.946736,-23.9423,78.7449)"><g transform="matrix(16.2734,0,0,16.2734,131.237,65.996)"></g><text x="120.383px" y="65.996px" style="font-family:'Helvetica';font-size:16.273px;fill:#555;">E</text></g><g transform="matrix(0.982575,0.185868,-0.185868,0.982575,-10.49,45.892)"><g transform="matrix(16.2734,0,0,16.2734,125.75,118.599)"></g><text x="114.896px" y="118.599px" style="font-family:'Helvetica';font-size:16.273px;fill:#555;">S</text></g><g transform="matrix(0.998466,0.0553601,-0.0553601,0.998466,-2.21027,13.7894)"><g transform="matrix(16.2735,0,0,16.2735,114.49,166.673)"></g><text x="104.549px" y="166.673px" style="font-family:'Helvetica';font-size:16.273px;fill:#555;">T</text></g><g transform="matrix(0.998854,-0.0478632,0.0478632,0.998854,1.29296,-12.0036)"><g transform="matrix(16.2735,0,0,16.2735,98.5582,203.156)"></g><text x="94.037px" y="203.156px" style="font-family:'Helvetica';font-size:16.273px;fill:#555;">I</text></g><g transform="matrix(0.988108,-0.15376,0.15376,0.988108,2.10114,-38.8324)"><g transform="matrix(16.2734,0,0,16.2734,83.7971,239.178)"></g><text x="72.943px" y="239.178px" style="font-family:'Helvetica';font-size:16.273px;fill:#555;">V</text></g><g transform="matrix(0.952786,-0.303642,0.303642,0.952786,-1.78327,-77.4686)"><g transform="matrix(16.2734,0,0,16.2734,52.1985,287.602)"></g><text x="41.344px" y="287.602px" style="font-family:'Helvetica';font-size:16.273px;fill:#555;">A</text></g><g transform="matrix(0.896537,-0.442969,0.442969,0.896537,-11.2477,-114.156)"><g transform="matrix(16.2734,0,0,16.2734,14.5327,329.626)"></g><text x="5.482px" y="329.626px" style="font-family:'Helvetica';font-size:16.273px;fill:#555;">L</text></g><g transform="matrix(9.0408,0,0,9.0408,159.781,151.691)"></g><text x="51.374px" y="151.691px" style="font-family:'Helvetica-Bold', 'Helvetica';font-weight:700;font-size:9.041px;fill:#555;">B<tspan x="58.509px 65.145px 72.28px 78.408px 81.526px 88.66px 91.778px 93.694px 100.829px 107.465px 114.6px 121.236px 129.373px 136.508px 143.144px 150.279px 151.258px 154.753px " y="151.691px 151.691px 151.691px 151.691px 151.691px 151.691px 151.691px 151.691px 151.691px 151.691px 151.691px 151.691px 151.691px 151.691px 151.691px 151.691px 151.691px 151.691px ">ERLIN, DECEMBER 10</tspan></text></g><g id="Designed-by-Freepik" serif:id="Designed by Freepik"></g></svg>